/* XPM */
static const char *collectible2[] = {
/* columns rows colors chars-per-pixel */
"52 52 83 1 ",
"  c black",
". c #060303",
"X c #060606",
"o c #0A0505",
"O c #0F0707",
"+ c #090909",
"@ c #0F0808",
"# c #0E0E0E",
"$ c #130A0A",
"% c #160B0B",
"& c #170C0C",
"* c #180D0D",
"= c #1C0E0E",
"- c gray8",
"; c #1F1010",
": c #191919",
"> c gray12",
", c #201010",
"< c #241212",
"1 c #261414",
"2 c #291515",
"3 c #2F1818",
"4 c #301919",
"5 c #341B1B",
"6 c #371D1D",
"7 c #381D1D",
"8 c #3C1F1F",
"9 c gray13",
"0 c #272727",
"q c gray16",
"w c #2D2D2D",
"e c #3F2121",
"r c gray19",
"t c #343434",
"y c #3A3A3A",
"u c #3E3E3E",
"i c #402121",
"p c #442323",
"a c #472525",
"s c #4B2727",
"d c #4C2727",
"f c #4D2828",
"g c #512A2A",
"h c #5E3A3A",
"j c gray26",
"k c gray27",
"l c gray29",
"z c gray30",
"x c #515151",
"c c #555555",
"v c #5B5B5B",
"b c #5D5D5D",
"n c #644141",
"m c #705050",
"M c gray38",
"N c #676767",
"B c #6A6A6A",
"V c #6F6F6F",
"C c gray44",
"Z c #777777",
"A c #7B7B7B",
"S c #7C7C7C",
"D c #808080",
"F c #898989",
"G c gray55",
"H c #909090",
"J c #979797",
"K c #989898",
"L c gray62",
"P c gray63",
"I c gray65",
"U c gray66",
"Y c #B1B1B1",
"T c gray71",
"R c #B9B9B9",
"E c #C0C0C0",
"W c gray78",
"Q c #CBCBCB",
"! c gray83",
"~ c #D8D8D8",
"^ c gray87",
"/ c gray89",
"( c #E6E6E6",
/* pixels */
"gggggggggggggggggggggggggggggggggggggggggggggggggggh",
"gggggggggggggggggggggf5,**,7fggggggggggggggggggggggh",
"gggggggggggggggggggg4.      o6gggggggggggggggggggggh",
"ggggggggggggggggggg,   qzl9   2ggggggggggggggggggggh",
"gggggggggggggggggg2  tR((((U9  5gggggggggggggggggggh",
"ggggggggggggggggga  u^((((((!0 ofggggggggggggggggggh",
"ggggggggggggggggg2 +Q((((((((Y  5ggggggggggggggggggh",
"ggggggggggggggggg% k((((((((((0 ,ggggggggggggggggggh",
"gggggggggggggggggO N((((((((((j =ggggggggggggggggggh",
"ggggggggggggggggg$ x((((((((((r ;ggggggggggggggggggh",
"ggggggggggggggggg< -^((((((((QX 3ggggggggggggggggggh",
"ggggggggggggggggge  N((((((((l  sggggggggggggggggggh",
"ggggggggggggggggs%  XR((((((L   ;fgggggggggggggggggh",
"gggggggggggggggs@  yR((((((((Uq  *fggggggggggggggggh",
"ggggggggggggggg%  V/((((((((((^c  ,ggggggggggggggggh",
"gggggggggggggg4  C(((((((((((((/x  7gggggggggggggggh",
"gggggggggggggfo y/((((((((((((((~> $gggggggggggggggh",
"ggggggggggggg6  Y((((((((((((((((H  iggggggggggggggh",
"ggggggggggggg= q(((((((((((((((((^# 2ggggggggggggggh",
"gggggggggggggO M((((((((((((((((((j *ggggggggggggggh",
"gggggggggggggo S((((((((((((((((((b $ggggggggggggggh",
"gggggggggggggo A((((((((((((((((((v $ggggggggggggggh",
"ggggggggggggg$ b((((((((((((((((((y *ggggggggggggggh",
"ggggggggggggg, 9(((((((((((((((((~+ 2ggggggggggggggh",
"ggggggggggggg7  U((((((((((((((((F  iggggggggggggggh",
"gggggggggggggfo w/((((((((((((((!- %gggggggggggggggh",
"gggggggggggggg5  b(((((((((((((/j  egggggggggggggggh",
"ggggggggggggggg=  v^((((((((((!j  1ggggggggggggggggh",
"ggggggggggggggg4   rW((((((((T9   7ggggggggggggggggh",
"gggggggggggggs%   9VE((((((((TM:   =dggggggggggggggh",
"ggggggggggggeo  rI(((((((((((((/J9  Oagggggggggggggh",
"ggggggggggg8. XA/((((((((((((((((^M  oiggggggggggggh",
"ggggggggggi. #U((((((((((((((((((((HX oagggggggggggh",
"gggggggggso #Y((((((((((((((((((((((LX $fggggggggggh",
"ggggggggg& XI((((((((((((((((((((((((F  ,ggggggggggh",
"gggggggg4  Z((((((((((((((((((((((((((c  8gggggggggh",
"gggggggdX r/((((((((((((((((((((((((((~: @gggggggggh",
"ggggggg2  T((((((((((((((((((((((((((((K  5ggggggggh",
"ggggggfX z(((((((((((((((((((((((((((((/w $ggggggggh",
"gggggg4  T((((((((((((((((((((((((((((((J  egggggggh",
"gggggg& r(((((((((((((((((((((((((((((((^- ,gggggggh",
"gggggs  D((((((((((((((((((((((((((((((((b ogggggggh",
"ggggg7  E((((((((((((((((((((((((((((((((P  pggggggh",
"ggggg1 :(((((((((((((((((((((((((((((((((!X 4ggggggh",
"ggggg& l((((((((((((((((((((((((((((((((((0 ,ggggggh",
"gggggo V((((((((((((((((((((((((((((((((((z %ggggggh",
"ggggf. G((((((((((((((((((((((((((((((((((B Oggggggh",
"ggggs  P((((((((((((((((((((((((((((((((((D .ggggggh",
"ggggs  rjjjjjjjjjjjjjjjjjjjjjjjjjjjjjjjjjjq .fgggggh",
"gggga                                       .fgggggh",
"ggggs=======================================;ggggggh",
"nnnnnnnnnnnnnnnnnnnnnnnnnnnnnnnnnnnnnnnnnnnnnnnnnnnm"
};
