/* XPM */
static const char *collectible[] = {
/* columns rows colors chars-per-pixel */
"52 52 187 2 ",
"   c #2C1913",
".  c #391E18",
"X  c #3D2518",
"o  c #47281E",
"O  c #41251C",
"+  c #472F22",
"@  c #492D21",
"#  c #543323",
"$  c #5A3625",
"%  c #563826",
"&  c #5E3A27",
"*  c #5C3C2B",
"=  c #53392B",
"-  c #473B32",
";  c #4D3B32",
":  c #5A3F33",
">  c #623A26",
",  c #633E2C",
"<  c #6D3F2E",
"1  c #4D4035",
"2  c #5C4434",
"3  c #5B4A36",
"4  c #564539",
"5  c #5C4A3B",
"6  c #5C453B",
"7  c #5D503E",
"8  c #664127",
"9  c #67442D",
"0  c #6C432D",
"q  c #71452E",
"w  c #72482F",
"e  c #664331",
"r  c #6B4531",
"t  c #6E4934",
"y  c #64463B",
"u  c #634D3B",
"i  c #6C4D3B",
"p  c #714631",
"a  c #734A33",
"s  c #7A4D32",
"d  c #744E39",
"f  c #784E38",
"g  c #67533F",
"h  c #6B543E",
"j  c #7D5136",
"k  c #73543D",
"l  c #7C543B",
"z  c #76593F",
"x  c #7E5C3E",
"c  c #5B4C41",
"v  c #5F5349",
"b  c #5C5853",
"n  c #644E42",
"m  c #694E44",
"M  c #635446",
"N  c #6C5542",
"B  c #6E5945",
"V  c #6C5A4D",
"C  c #725341",
"Z  c #7D5641",
"A  c #765D45",
"S  c #7C5C42",
"D  c #725C4B",
"F  c #7D5C49",
"G  c #6E5F52",
"H  c #7A5E50",
"J  c #7E6244",
"K  c #7D624A",
"L  c #6E6450",
"P  c #756656",
"I  c #7D6453",
"U  c #796957",
"Y  c #73655A",
"T  c #766A5B",
"R  c #7D6B5B",
"E  c #746C60",
"W  c #7D706A",
"Q  c #7A7270",
"!  c #82553C",
"~  c #835A3D",
"^  c #8B603F",
"/  c #815542",
"(  c #845D43",
")  c #8A5E44",
"_  c #805E4A",
"`  c #8A5E4A",
"'  c #846245",
"]  c #8B6446",
"[  c #84634B",
"{  c #8C644A",
"}  c #85684A",
"|  c #8D6A4C",
" . c #916947",
".. c #91664C",
"X. c #926A4D",
"o. c #93714E",
"O. c #9A704E",
"+. c #806557",
"@. c #8A6652",
"#. c #856855",
"$. c #8E6D55",
"%. c #816559",
"&. c #826A5C",
"*. c #896D5D",
"=. c #936750",
"-. c #936D54",
";. c #87755E",
":. c #957353",
">. c #9C7554",
",. c #95725D",
"<. c #9B755C",
"1. c #9C7A5C",
"2. c #A07755",
"3. c #A27A56",
"4. c #A07A58",
"5. c #826E60",
"6. c #8E776D",
"7. c #9E7661",
"8. c #937962",
"9. c #9D7B62",
"0. c #9F7C6A",
"q. c #947866",
"w. c #887770",
"e. c #817971",
"r. c #8B7D72",
"t. c #A37D65",
"y. c #A57E69",
"u. c #A87B64",
"i. c #9D8062",
"p. c #9D806B",
"a. c #9C8573",
"s. c #9E8679",
"d. c #98857C",
"f. c #A38265",
"g. c #A98266",
"h. c #A88963",
"j. c #A4836B",
"k. c #A9856D",
"l. c #A68A6C",
"z. c #AB8A6C",
"x. c #A58A66",
"c. c #A68671",
"v. c #AA8673",
"b. c #A78970",
"n. c #AB8C74",
"m. c #AC8D7C",
"M. c #A5897B",
"N. c #B08E75",
"B. c #B08D7B",
"V. c #AD9276",
"C. c #AD937A",
"Z. c #B29376",
"A. c #B1947D",
"S. c #B2997F",
"D. c #9E8D82",
"F. c #A39186",
"G. c #AC9283",
"H. c #A89A8E",
"J. c #A39189",
"K. c #B29381",
"L. c #B69F85",
"P. c #B59B85",
"I. c #B89C84",
"U. c #B59E8A",
"Y. c #B99E8A",
"T. c #B6A185",
"R. c #BAA28C",
"E. c #B8A88D",
"W. c #BBA493",
"Q. c #BDA995",
"!. c #BDA994",
"~. c #BCA79A",
"^. c #BDAC9A",
"/. c #BEB29A",
"(. c #C3A595",
"). c #C1AA94",
"_. c #C2A699",
"`. c #C0AC9B",
"'. c #C2AC9B",
"]. c #C4B19D",
"[. c #C7B6A5",
"{. c #C7B8A6",
"}. c #C7B5A9",
"|. c #C7BBAA",
" X c #CDC7BA",
".X c None",
"XX c black",
/* pixels */
".X.X.X.X.X.X.X.X.X.X.X.X.X.X.X.X.X.X.X.X.X.X.X.X.X.X.X.X.X.X.X.X.X.X.X.X.X.X.X.X.X.X.X.X.X.X.X.X.X.X.X.X",
".X.X.X.X.X.X.X.X.X.X.X.X.X.X.X.X.X.X.X.X.X.X.Xo.K ' | | .X.X.X.X.X.X.X.X.X.X.X.X.X.X.X.X.X.X.X.X.X.X.X.X",
".X.X.X.X.X.X.X.X.X.X.X.X.X.X.X.X.X.X.X.XK h M P I I P M N S .X.X.X.X.X.X.X.X.X.X.X.X.X.X.X.X.X.X.X.X.X.X",
".X.X.X.X.X.X.X.X.X.X.X.X.X.X.X.X.X.Xw 5 n @.9.c.n.Z.N.n.q.T 3 ( .X.X.X.X.X.X.X.X.X.X.X.X.X.X.X.X.X.X.X.X",
".X.X.X.X.X.X.X.X.X.X.X.X.X.X.X.X.Xe u [ t.7.7.t.f.j.k.b.V.I.a.Y z .X.X.X.X.X.X.X.X.X.X.X.X.X.X.X.X.X.X.X",
".X.X.X.X.X.X.X.X.X.X.X.X.X.X.X.X9 c $.:.-.<.7.t.f.f.j.n.n.C.Y.U.E S .X.X.X.X.X.X.X.X.X.X.X.X.X.X.X.X.X.X",
".X.X.X.X.X.X.X.X.X.X.X.X.X.X.Xa c _ | X.:.<.0.j.t.f.c.n.A.P.R.W.U.Y ] .X.X.X.X.X.X.X.X.X.X.X.X.X.X.X.X.X",
".X.X.X.X.X.X.X.X.X.X.X.X.X.X.X5 t ( { -.1.t.y.j.y.k.n.A.P.E.Q.Q.`.G.5 >..X.X.X.X.X.X.X.X.X.X.X.X.X.X.X.X",
".X.X.X.X.X.X.X.X.X.X.X.X.X.XK u l / @.,.t.t.j.f.g.z.n.P.W.Q.'.`.^.`.&.S .X.X.X.X.X.X.X.X.X.X.X.X.X.X.X.X",
".X.X.X.X.X.X.X.X.X.X.X.X.X.X3 u d ! | 1.t.f.f.j.x.k.n.P.~.`.^.'._.(.M.g 3..X.X.X.X.X.X.X.X.X.X.X.X.X.X.X",
".X.X.X.X.X.X.X.X.X.X.X.X.X>.5 t a l ..1.f.f.f.j.f.k.n.P.E./.`.`.W.U.L.P O..X.X.X.X.X.X.X.X.X.X.X.X.X.X.X",
".X.X.X.X.X.X.X.X.X.X.X.X.X$.6 r a l ..9.f.f.j.j.f.k.n.S.L.R.!.W.R.I.P.U ] .X.X.X.X.X.X.X.X.X.X.X.X.X.X.X",
".X.X.X.X.X.X.X.X.X.X.X.X.X[ 5 p a l | 1.f.y.j.j.f.l.b.n.S.P.P.P.C.B.I.I ( .X.X.X.X.X.X.X.X.X.X.X.X.X.X.X",
".X.X.X.X.X.X.X.X.X.X.X.X.X} 5 t r l { <.f.j.f.k.j.h.j.c.n.C.C.C.n.n.S.I ' .X.X.X.X.X.X.X.X.X.X.X.X.X.X.X",
".X.X.X.X.X.X.X.X.X.X.X.X.X:.4 0 0 f ( -.7.f.f.f.f.j.y.j.k.k.c.b.k.j.A.P :..X.X.X.X.X.X.X.X.X.X.X.X.X.X.X",
".X.X.X.X.X.X.X.X.X.X.X.X.X3.5 e 0 a / { :.i.f.f.j.j.j.j.j.k.g.j.k.c.c.V 2..X.X.X.X.X.X.X.X.X.X.X.X.X.X.X",
".X.X.X.X.X.X.X.X.X.X.X.X.X.XN y e < l [ -.1.7.y.f.j.j.j.j.j.j.f.j.n.*.h .X.X.X.X.X.X.X.X.X.X.X.X.X.X.X.X",
".X.X.X.X.X.X.X.X.X.X.X.X.X.X:.4 e 9 r l ] -.<.i.9.t.f.f.0.t.f.f.k.m.G o..X.X.X.X.X.X.X.X.X.X.X.X.X.X.X.X",
".X.X.X.X.X.X.X.X.X.X.X.X.X.X.XB 7 0 0 a ! ] | :.:.1.<.<.>.<.1.9.n.%.h .X.X.X.X.X.X.X.X.X.X.X.X.X.X.X.X.X",
".X.X.X.X.X.X.X.X.X.X.X.X.X.X.X.X5 n 9 0 s ! ! ( ] ] ] ] ] ] { 9.I 5 >..X.X.X.X.X.X.X.X.X.X.X.X.X.X.X.X.X",
".X.X.X.X.X.X.X.X.X.X.X.X.X.X.X.X.X5 3 q q a s j l l l l l ~ ] k 5 :..X.X.X.X.X.X.X.X.X.X.X.X.X.X.X.X.X.X",
".X.X.X.X.X.X.X.X.X.X.X.X.X.X.X.X.X.X; ; , t a q a a f j f 9 5 - s .X.X.X.X.X.X.X.X.X.X.X.X.X.X.X.X.X.X.X",
".X.X.X.X.X.X.X.X.X.X.X.X.X.X.X.X.X-.2 d 2 3 : * > 9 e 5 5 M 8.L | .X.X.X.X.X.X.X.X.X.X.X.X.X.X.X.X.X.X.X",
".X.X.X.X.X.X.X.X.X.X.X.X.X.X.X.X.X9 e ] ] ( C N y P I #.p.S.I.*.A .X.X.X.X.X.X.X.X.X.X.X.X.X.X.X.X.X.X.X",
".X.X.X.X.X.X.X.X.X.X.X.X.X.X.X.X:.3 l ( ) X.7.l.n.b.n.Z.S.A.I.G.B .X.X.X.X.X.X.X.X.X.X.X.X.X.X.X.X.X.X.X",
".X.X.X.X.X.X.X.X.X.X.X.X.X.X.X.Xp 5 ' ( ] | <.j.j.j.k.n.C.I.R.).R | .X.X.X.X.X.X.X.X.X.X.X.X.X.X.X.X.X.X",
".X.X.X.X.X.X.X.X.X.X.X.X.X.X.X3.2 k ( ' ] -.1.f.f.j.l.V.S.I.R.^.F.h .X.X.X.X.X.X.X.X.X.X.X.X.X.X.X.X.X.X",
".X.X.X.X.X.X.X.X.X.X.X.X.X.X.X0 5 ) ~ ( ] -.9.f.j.k.c.n.S.U.W.Q.[.W x .X.X.X.X.X.X.X.X.X.X.X.X.X.X.X.X.X",
".X.X.X.X.X.X.X.X.X.X.X.X.X.Xs 1 ( ( ( ) ..,.0.f.f.j.l.n.K.R.R.!.].~.v  ..X.X.X.X.X.X.X.X.X.X.X.X.X.X.X.X",
".X.X.X.X.X.X.X.X.X.X.X.X.X>.4 i ) / ) ` :.1.y.j.y.f.j.n.K.P.R.W.'.}.J.7 :..X.X.X.X.X.X.X.X.X.X.X.X.X.X.X",
".X.X.X.X.X.X.X.X.X.X.X.X.Xe + ( ~ ~ ( { :.t.j.f.j.j.j.b.m.K.U.W.Q.`. Xe.A .X.X.X.X.X.X.X.X.X.X.X.X.X.X.X",
".X.X.X.X.X.X.X.X.X.X.X.X.X& , l j l ( ..<.t.j.f.j.t.k.c.v.S.T.R.!.^.[.F.B .X.X.X.X.X.X.X.X.X.X.X.X.X.X.X",
".X.X.X.X.X.X.X.X.X.X.X.X.X& # p a f / =.7.f.j.j.j.j.j.c.n.A.P.R.!.^.[.d.h .X.X.X.X.X.X.X.X.X.X.X.X.X.X.X",
".X.X.X.X.X.X.X.X.X.X.X.X.X$   0 , p / :.f.j.l.g.j.f.j.c.n.S.L.R.R.`.{.b u .X.X.X.X.X.X.X.X.X.X.X.X.X.X.X",
".X.X.X.X.X.X.X.X.X.X.X.X.X> . o 8 0 ~ -.9.g.j.f.f.f.j.k.n.K.Y.Y.~.'.r.Q D .X.X.X.X.X.X.X.X.X.X.X.X.X.X.X",
".X.X.X.X.X.X.X.X.X.X.X.X.X& $ @ X 0 ] >.t.g.j.g.f.t.j.k.n.A.R.(.G.T 6.H.B .X.X.X.X.X.X.X.X.X.X.X.X.X.X.X",
".X.X.X.X.X.X.X.X.X.X.X.X.X& # a & @ , ` i.l.z.k.k.k.z.b.n.V.a.%.Y s.|.D.N .X.X.X.X.X.X.X.X.X.X.X.X.X.X.X",
".X.X.X.X.X.X.X.X.X.X.X.X.Xa O Z x ~ Z i y u i C F F C i m m H a.Q.].[.Y J .X.X.X.X.X.X.X.X.X.X.X.X.X.X.X",
".X.X.X.X.X.X.X.X.X.X.X.X.X~ # * :.] -.u.g.9.,.$.F _ $.,.0.C.R.R.).[.d.h .X.X.X.X.X.X.X.X.X.X.X.X.X.X.X.X",
".X.X.X.X.X.X.X.X.X.X.X.X.X.X^ % : -.7.f.j.j.k.k.k.k.c.b.n.A.P.(.W.w.g 3..X.X.X.X.X.X.X.X.X.X.X.X.X.X.X.X",
".X.X.X.X.X.X.X.X.X.X.X.X.X.X.X) $ = K p.b.n.V.v.n.n.n.Z.Z.S.G.6.G l .X.X.X.X.X.X.X.X.X.X.X.X.X.X.X.X.X.X",
".X.X.X.X.X.X.X.X.X.X.X.X.X.X.X.Xl l 0 N D R 5.*.8.8.;.+.I D N k | .X.X.X.X.X.X.X.X.X.X.X.X.X.X.X.X.X.X.X",
".X.X.X.X.X.X.X.X.X.X.X.X.X.X.X.X.X.X.X:.:.] J k h N h A ' -.4..X.X.X.X.X.X.X.X.X.X.X.X.X.X.X.X.X.X.X.X.X",
".X.X.X.X.X.X.X.X.X.X.X.X.X.X.X.X.X.X.X.X.X.X.X.X.X.X.X.X.X.X.X.X.X.X.X.X.X.X.X.X.X.X.X.X.X.X.X.X.X.X.X.X",
".X.X.X.X.X.X.X.X.X.X.X.X.X.X.X.X.X.X.X.X.X.X.X.X.X.X.X.X.X.X.X.X.X.X.X.X.X.X.X.X.X.X.X.X.X.X.X.X.X.X.X.X",
".X.X.X.X.X.X.X.X.X.X.X.X.X.X.X.X.X.X.X.X.X.X.X.X.X.X.X.X.X.X.X.X.X.X.X.X.X.X.X.X.X.X.X.X.X.X.X.X.X.X.X.X",
".X.X.X.X.X.X.X.X.X.X.X.X.X.X.X.X.X.X.X.X.X.X.X.X.X.X.X.X.X.X.X.X.X.X.X.X.X.X.X.X.X.X.X.X.X.X.X.X.X.X.X.X",
".X.X.X.X.X.X.X.X.X.X.X.X.X.X.X.X.X.X.X.X.X.X.X.X.X.X.X.X.X.X.X.X.X.X.X.X.X.X.X.X.X.X.X.X.X.X.X.X.X.X.X.X",
".X.X.X.X.X.X.X.X.X.X.X.X.X.X.X.X.X.X.X.X.X.X.X.X.X.X.X.X.X.X.X.X.X.X.X.X.X.X.X.X.X.X.X.X.X.X.X.X.X.X.X.X",
".X.X.X.X.X.X.X.X.X.X.X.X.X.X.X.X.X.X.X.X.X.X.X.X.X.X.X.X.X.X.X.X.X.X.X.X.X.X.X.X.X.X.X.X.X.X.X.X.X.X.X.X",
".X.X.X.X.X.X.X.X.X.X.X.X.X.X.X.X.X.X.X.X.X.X.X.X.X.X.X.X.X.X.X.X.X.X.X.X.X.X.X.X.X.X.X.X.X.X.X.X.X.X.X.X",
".X.X.X.X.X.X.X.X.X.X.X.X.X.X.X.X.X.X.X.X.X.X.X.X.X.X.X.X.X.X.X.X.X.X.X.X.X.X.X.X.X.X.X.X.X.X.X.X.X.X.X.X"
};
