/* XPM */
static const char *exit2[] = {
/* columns rows colors chars-per-pixel */
"52 52 203 2 ",
"   c #0C0C0C",
".  c #130F0E",
"X  c #141413",
"o  c #1A1513",
"O  c #181817",
"+  c #1C1B1B",
"@  c #241712",
"#  c #291712",
"$  c #221915",
"%  c #2B1B14",
"&  c #231D1B",
"*  c #2B1E19",
"=  c #341D15",
"-  c #3C1F16",
";  c #1F201F",
":  c #23201E",
">  c #2E211C",
",  c #362017",
"<  c #3D2117",
"1  c #342119",
"2  c #3D241A",
"3  c #3D281F",
"4  c #242423",
"5  c #282625",
"6  c #2B2927",
"7  c #2C2B2B",
"8  c #362722",
"9  c #3D2A23",
"0  c #332E2C",
"q  c #3C2F2A",
"w  c #33312E",
"e  c #343333",
"r  c #393634",
"t  c #3C3935",
"y  c #383738",
"u  c #3C3C3C",
"i  c #412117",
"p  c #43241A",
"a  c #48271C",
"s  c #43291D",
"d  c #4C291C",
"f  c #522D1E",
"g  c #57301E",
"h  c #59311F",
"j  c #442D23",
"k  c #452F28",
"l  c #4D3126",
"z  c #45332C",
"x  c #4A342B",
"c  c #543222",
"v  c #5B3321",
"b  c #52372A",
"n  c #57392B",
"m  c #5B3B2B",
"M  c #443A37",
"N  c #4D3A32",
"B  c #4B3E3A",
"V  c #533D33",
"C  c #5D3C33",
"Z  c #613723",
"A  c #653924",
"S  c #6B3D26",
"D  c #633D28",
"F  c #6D3F28",
"G  c #703F27",
"H  c #613E33",
"J  c #43403E",
"K  c #4C413D",
"L  c #564136",
"P  c #5C4136",
"I  c #53433C",
"U  c #5B443A",
"Y  c #5F493E",
"T  c #6E4028",
"R  c #704027",
"E  c #744329",
"W  c #79462B",
"Q  c #7D492D",
"!  c #644236",
"~  c #6B4236",
"^  c #62453B",
"/  c #6C463A",
"(  c #65493D",
")  c #6B4B3E",
"_  c #714639",
"`  c #74483B",
"'  c #7C4C3E",
"]  c #293E48",
"[  c #403F40",
"{  c #30464F",
"}  c #2A4855",
"|  c #374D55",
" . c #3E5259",
".. c #444444",
"X. c #4B4543",
"o. c #4B4847",
"O. c #484848",
"+. c #4C4B4B",
"@. c #544640",
"#. c #534945",
"$. c #5B4B44",
"%. c #544E4C",
"&. c #5B4F4A",
"*. c #52514E",
"=. c #5D524E",
"-. c #535353",
";. c #5C5653",
":. c #575857",
">. c #5B5956",
",. c #5C5C5C",
"<. c #634D43",
"1. c #6B4D42",
"2. c #674F48",
"3. c #7E4F41",
"4. c #63524C",
"5. c #6A544A",
"6. c #655A58",
"7. c #6A5E58",
"8. c #796F4F",
"9. c #66615E",
"0. c #736459",
"q. c #547676",
"w. c #646464",
"e. c #6A6765",
"r. c #6D6965",
"t. c #6C6C6C",
"y. c #716865",
"u. c #7B6D65",
"i. c #726F6D",
"p. c #6F706F",
"a. c #74716E",
"s. c #7B726C",
"d. c #747473",
"f. c #797675",
"g. c #7A7976",
"h. c #7C7C7C",
"j. c #824C2F",
"k. c #864E30",
"l. c #884F31",
"z. c #875031",
"x. c #8B5332",
"c. c #B67728",
"v. c #A67836",
"b. c #805244",
"n. c #8A5F52",
"m. c #90714B",
"M. c #8D7066",
"N. c #887A73",
"B. c #817E7C",
"V. c #7C9474",
"C. c #BB8131",
"Z. c #D6A53D",
"A. c #E9B13F",
"S. c #85817D",
"D. c #8A837E",
"F. c #D5A148",
"G. c #EBBA4D",
"H. c #37748A",
"J. c #337E9C",
"K. c #38829C",
"L. c #2484AB",
"P. c #298CB5",
"I. c #258EBA",
"U. c #408297",
"Y. c #7F8080",
"T. c #848484",
"R. c #8B8683",
"E. c #8D8A87",
"W. c #8B8B8B",
"Q. c #928C87",
"!. c #8F908F",
"~. c #94908D",
"^. c #99948E",
"/. c #949393",
"(. c #999693",
"). c #9B9997",
"_. c #9B9A9A",
"`. c #A39D99",
"'. c #9FA09F",
"]. c #A4A19F",
"[. c #A5A4A3",
"{. c #A9A6A4",
"}. c #A8A8A5",
"|. c #ADACAB",
" X c #B1AEAD",
".X c #B9B2A5",
"XX c #B4B1AF",
"oX c #B4B3B2",
"OX c #BCBCB7",
"+X c #C1BFBA",
"@X c #C4C1BA",
"#X c #C9C9C8",
"$X c #D0CFCD",
"%X c #D2D1CD",
"&X c #D4D4D3",
"*X c #D8D9D8",
"=X c #E4E4E4",
"-X c #EEEDEA",
";X c #F0EFEC",
":X c #F2F1EF",
">X c #F4F4F3",
",X c #F8F8F7",
"<X c #FCFDFD",
/* pixels */
"b.b.b.b.b.b.b.b.b.b.b.b.b.b.b.b.b.b.b.b.b.b.b.b.) _.>X)./ b.b.b.b.b.b.b.b.b.b.b.b.b.b.b.b.b.b.b.b.b.b.n.",
"3.' ' ' ' ' ' ' ' ' ' ' ' ' ' ' ' ' ' ' ' ` 1.0.=.XX>XOX%.0.1.` ' ' ' ' ' ' ' ' ' ' ' ' ' ' ' ' ' ' ' n.",
"3.' ' ' ' ' ' ' ' ' ' ' ' ' ' ' ' 1.2.4.2.k T.h.d.g.$XT.d.h.h.j 2.2.<.) ' ' ' ' ' ' ' ' ' ' ' ' ' ' ' n.",
"3.' ' ' ' ' ' ' ' ' ' ' ' ' / 5.9 ,.d.d.h...h.d.w.E.+X/.w.d.i.-.h.h.d.:.q 4.! ' ' ' ' ' ' ' ' ' ' ' ' n.",
"3.' ' ' ' ' ' ' ' ' ' ` ~ y.T.!.-.u d.d.h...d.d.-.w.(.w.-.d.w.+.d.d.i.u >.W.h.7.! ` ' ' ' ' ' ' ' ' ' n.",
"3.' ' ' ' ' ' ' ' _ C %.+ w.d.h.t.5 w.t.d...O.d.-.XX%X{.-.d.O.+.d.t.,.4 t.f.d.d.& &.C _ ' ' ' ' ' ' ' n.",
"3.' ' ' ' ' ' ' ` 6.W.h.....t.t.h.4 -.,.,.u e -.a.[.[.[.w.+.6 ..>.>.O.4 d.t.t.y [ h.W.$.` ' ' ' ' ' ' n.",
"3.' ' ' ' ' ' / B.W.f.d.t.+ >.,.w.6 ......6 5 7 6 6 6 6 6 6 4 0 ..u y 7 e.,.>.4 w.d.h./.g.! ' ' ' ' ' n.",
"3.' ' ' ' ' ! i./.h.d.t.w.7 O.>.u 6 + 5 & & @ % # % o % # # @ * 4 5 + 6 J -...e t.t.d.T./.w.~ ' ' ' ' n.",
"3.' ' ' ' ' 8 u d.t.w.t.w...& 7 5 & = = i p < < = 1 % = = < < p i = % : 4 7 4 u w.t.t.d.d.M 9 ' ' ' ' n.",
"3.' ' ' ' 5.T.w u w.>.,.-.e + * < p p - i p < } P.K.V.U.P.{ < p < - i p - * + e +.w.>.w.y y W.$.' ' ' n.",
"3.' ' ' _ h.h.T.y y >.+.6 * i p i p a d v A A  .P.v.Z.v.P.| h T Z f a p < p < & 5 -.-.7 -.T.h.d._ ' ' n.",
"3.' ' ' ^ T.d.d.i...& 5 1 i p p p v Q A F R T  .I.8.C.8.I.| Z Q Q A Q Z d p p - 1 6 4 -.w.d.d.T.^ ' ' n.",
"3.' ' ' X.d.d.t.t...+ = p i a v A R z.F R E T  .I.q.A.q.I.| Z j.Q S k.Q A v a < p = 4 *.t.t.d.d.B ' ' n.",
"3.' ' ! 6.e y >.w.y $ i p i A S F F k.F E W S  .I.m.G.m.I.| A Q Q S j.E S R Z i p i * y t.,.y r w./ ' n.",
"3.' ' 5.T.t...5 y 5 = p a d F S T F j.F Q W F +.H.c.F.c.H.{ S k.E F k.R F Q Z v a p = 5 y 5 -.W.W.<.' n.",
"3.' ' ;.a.`.w.w.5 $ i p v f F S T W k.F W Q S S } K.J.J.} f F l.W F j.R R Q W v Z p - o e ,.t.d.d.=.' n.",
"3.' _ d.-.D.-.+.6 # < f A d S F F E k.F W j.S j.v } L.] c F S x.Q F z.j.S W Q Z F f < @ w -.,.d.d.i.' n.",
"3.' _ w.w.g.-.u : x 9 A Z v S F S F k.F W Q F j.F A > g A F F l.W T x.W S T Q v F v z z 5 O.>.t.t.w.' n.",
"3.' _ 0 w y 5 6 + j V V V $.$.U &.4.P c S Q T j.F W < R A R E k.Q m Y U $.$.$.I V L L j + e e ..y q ' n.",
"3.' U d.d.t.>.+.+ a n V V L <.U P ( U N f j.F j.F W p E S Q E k.c N $.^ P &.1.V V V n s + +.-.d.d.d.! n.",
"3.' ^ d.t.a.d.w.5 s j 3 j 9 9 z 3 9 s p S j.S z.F W p W F k.E k.R p < 2 9 M 9 9 9 9 j 3 5 w.d.w.d.h.H n.",
"3.' ^ d.a..Xw.,.7 3 % d d d c f d f A F F Q S k.F E p R F j.E k.j.A Z f d v f a f p = 9 5 w.:.,.w.h.H n.",
"3.' ^ w.S.^.e.w.6 % < Z A Z E W S S j.T E Q S k.F Q 2 Q S j.E k.Q A Q E S j.j.S F Z p 1 5 w.u w.O.h.H n.",
"3.' ^ t.h.@X:.w.6 I z A F A Q Q S F j.R E Q S k.S W p j.F j.E Q Q F j.S S j.j.F G S N V 5 w.+.O.-.h.H n.",
"3.' ^ w.Q.~.-.w.7 p L N V &.&.=.&.&.<.D R W S j.S W 2 Q F j.E Q W m $.&.$.4.&.U V N U s 5 w...t...h.H n.",
"3.' U ,.e.r.-.9.5 s c P V V ) Y U 5.U V c E S Q A W < Q S j.R j.c I P <.Y U 1.V n ^ c s 5 -.y O.y w.H n.",
"3.' C ..+.-.O.u + 3 s 3 9 3 3 j q 9 3 < A R S j.A W 2 Q F W R Q R 2 3 z 2 9 9 j 9 3 j s 4 ..O.-.-.O.H n.",
"3.' ! +.>.w.,.-.+ j , d d a f d d f Z S S F S Q S E < Q S Q F Q W F A d d d d a d d 1 9 + -.,.w.,.O./ n.",
"3.' ^ T.d.d.d.w.7 2 f Z g Z F S F F E S S F S Q S F 2 E S Q S E Q R Q A F F A Z A A f 3 7 w.d.d.d.W.H n.",
"3.' ^ d.d.d.t.,.6 a h v v Z A A F A T S Z A A R A R 2 R A E A T W R E v F S Z Z v v h p 7 ,.t.d.p.h.H n.",
"3.' ^ h.p.w.w.,.5 a v i.^.A (.N.v u.[.S u.}.Z Q.i.R p F i.Q.Z _.M.S (.N.A N._.Z Q.d.v p 5 >.>.t.d.h.H n.",
"3.' C >.O.O.-.O.4 a v s.{.;.+.6 %.`.|.;.5 O.9.].B.R < W h.].r.e J #.|.[.9.K y #.|.B.v p 4 +.-.-.-.,.C n.",
"3.' / ..O.-.-...O a v `.;XW.r   h.,X<XT.. 6 ).,XoXF p Q  X;X|.    d.,X<X}.w   t.-X Xv p O ..-.O...X.` n.",
"3.' ^ W.h.h.d.w.6 a v Q.$XW...e h.%X*XT.*.e /.*X).F p R (.*X_.e 7 d.%X*X_.e e d.$X).v p 4 e.g.g.h.(.H n.",
"3.' ^ d.t.d.w.-.5 a v $ X Y.<X<XW.7   B.=X<Xd.+ 7 m < Z 6 O >.<X-X).:   w.<X<X).4 . v p 5 -.w.p.d.T.C n.",
"3.' ^ t.w.t.w.O.4 a v M   h.<X<XW.    T.>X<Xd.> <.$.> <.<.* >.<X-X).    w.<X<X).t . v p 4 +.w.d.d.h.H n.",
"3.' U ,.O.[ ..7 + a v o   h.-X<XW.    T.<X>Xd.* $ 9 * 1 % % >.<X<X).  6 t.<X:X).+ . v p + 7 +.>.>.w.C n.",
"3.' U t.t.+ 6.>.4 a v `.>XW.w + h.>X>XT.O t ).B.b l # l b S.|.O O d.>X-X].5 & d.>X{.v p ; ,.-.4 w.t.C n.",
"3.' U t.t.e t.-.6 a v ].<XW.    /.<X<XT.    ).>XE.f 2 g W.>X|.O   t.<X<X[.t r t.<X|.v p 5 -.t.y d.t.H n.",
"3.' H y y 5 y e + a v ].-XW.    h.<X<XT.    ).>XXXS s F oX<X|.e   t.>X<X[.+ w t.<X|.f p + e u 5 u y ~ n.",
"3.' / f.B.h.d.,.+ < h 0 +.T.&X#XW.y >.T.$X@Xh.a.t A p S J ..t.&X#X/.-.y t.&X&X/.y 7 f = 4 w.d.h.h.d./ n.",
"3.' ^ h.d.d.d.t.4 $.V o   h.,X>XW.  6 W.<X>Xd.X w F p F t   f.<X,X).    w.,X,X(.  . V V 7 t.d.d.d.T.H n.",
"3.' ^ d.t.a.t.w.4 l U I V @.=.&.&.=.K t.>X<Xd.X 4 F p S r   >.-X,Xd.X.&.@.&.$.L V V U j 7 w.t.d.t.h.C n.",
"3.' C t.w.t.w.w.4 p n P l b ) U U ( P V o.h.T./.d.S 2 A     ,.-XE.N U 1.U Y ) m n P V s 7 w.t.e.t.d.C n.",
"3.' V u +.-.>.-.& < s 1 1 j B I z 8 *   X   ).<XXXS < A     >.-X,XR.* 9 z I #.x 1 1 j 3 5 -.>.,.%.u C n.",
"3.' H e ..O...y X 3 < 0 + d.=X=XT.    y d.,.oX<XXXS 2 A   X w.,X<X).  O >.=X=XW.+ . < 3 X u ......7 ~ n.",
"3.' ^ W.h.d.t.w.5 < f 9.d.T.oX[.W.w.w.T.{.[./.<XXXS 2 A +.d.S._._.W.d.d.h.|.'.W.T.%.f 1 5 w.t.g.h.W.C n.",
"3.' ^ d.t.w.w.-.6 a v ].,XW.r   T.-X<XT.0 6 W.<XXXS 2 A oX<X).  + T.<X>X}.r 5 d.<X Xv p 7 -.w.w.t.h.C n.",
"3.' ^ t.e.,.-...6 a v a.}.=.>.0 7.).|.&.7 >.=.[.g.A < A h.[.7.M t I }.(.7.w :.@.{.h.v p 6 u -.,.w.d.C n.",
"3.' P w.-.+.J e 5 a h r.R.Z E.s.A 0.(.A 0.).Z D.y.A < Z r.S.Z ~.0.Z E.u.v u.~.Z R.i.v p 5 7 u +.-.9.C n.",
"n.n.1.K B B B B M V C ^ ^ P ^ ^ P ^ ^ P ^ ^ ^ ^ P ^ V ! P ^ ! ( ^ P ^ ^ P ^ ^ P ^ ^ P V M B B K K I 1.M."
};
