/* XPM */
static const char *exit[] = {
/* columns rows colors chars-per-pixel */
"52 52 193 2 ",
"   c #0D0C0D",
".  c #100F0F",
"X  c #141413",
"o  c #1C1614",
"O  c #1D1817",
"+  c #1D1B1A",
"@  c #2C1A13",
"#  c #221D1B",
"$  c #2A1E1A",
"%  c #231916",
"&  c #331D16",
"*  c #331F18",
"=  c #24211F",
"-  c #2B211E",
";  c #352117",
":  c #3D2017",
">  c #34221A",
",  c #3C2319",
"<  c #3E281E",
"1  c #211F21",
"2  c #252322",
"3  c #2A2524",
"4  c #2C2827",
"5  c #2C2B2B",
"6  c #292728",
"7  c #342924",
"8  c #3D2A22",
"9  c #322E2C",
"0  c #3A2F29",
"q  c #34322E",
"w  c #2F2F30",
"e  c #312F30",
"r  c #343333",
"t  c #393835",
"y  c #3C3C3C",
"u  c #393632",
"i  c #2E393D",
"p  c #43241A",
"a  c #43291F",
"s  c #4C2A1D",
"d  c #46251A",
"f  c #522E1E",
"g  c #54301F",
"h  c #5B321F",
"j  c #432D23",
"k  c #4D2E21",
"l  c #532F20",
"z  c #4D3124",
"x  c #453129",
"c  c #4B342B",
"v  c #463027",
"b  c #543223",
"n  c #5B3422",
"m  c #553629",
"M  c #55392D",
"N  c #5B3B2C",
"B  c #463934",
"V  c #483A34",
"C  c #523C33",
"Z  c #5B3E32",
"A  c #613723",
"S  c #643924",
"D  c #6B3D26",
"F  c #653E2B",
"G  c #6D3F28",
"H  c #47413F",
"J  c #5A4136",
"K  c #54423B",
"L  c #5C463B",
"P  c #5C483F",
"I  c #6F4029",
"U  c #61402F",
"Y  c #75432A",
"T  c #79462C",
"R  c #7D492D",
"E  c #704027",
"W  c #654434",
"Q  c #694635",
"!  c #614639",
"~  c #64493C",
"^  c #6A4A3A",
"/  c #744A34",
"(  c #70503F",
")  c #2A3D45",
"_  c #2C3F48",
"`  c #323F44",
"'  c #403F40",
"]  c #2C4F5E",
"[  c #2E505F",
"{  c #334A53",
"}  c #2B5A6C",
"|  c #2A576A",
" . c #3B5A64",
".. c #305A6B",
"X. c #444444",
"o. c #4C4B4C",
"O. c #4A4947",
"+. c #5D4B43",
"@. c #564F4B",
"#. c #5D524C",
"$. c #53504C",
"%. c #545453",
"&. c #585857",
"*. c #585758",
"=. c #5C5C5C",
"-. c #585757",
";. c #634D43",
":. c #6A5145",
">. c #65524A",
",. c #6B564B",
"<. c #725545",
"1. c #6C5A52",
"2. c #605F5F",
"3. c #675650",
"4. c #5D695D",
"5. c #61605F",
"6. c #75645B",
"7. c #516B69",
"8. c #646463",
"9. c #696866",
"0. c #6C6C6C",
"q. c #696665",
"w. c #756D67",
"e. c #72716F",
"r. c #7E756F",
"t. c #737373",
"y. c #7C7A77",
"u. c #7B7B7B",
"i. c #777878",
"p. c #814C2E",
"a. c #844D30",
"s. c #875032",
"d. c #8A5132",
"f. c #9B7F45",
"g. c #816F67",
"h. c #88756B",
"j. c #8A7C75",
"k. c #837F7C",
"l. c #867871",
"z. c #7D8260",
"x. c #B88436",
"c. c #CB8E33",
"v. c #8E8555",
"b. c #86817E",
"n. c #8A817C",
"m. c #90857F",
"M. c #2F819E",
"N. c #32819A",
"B. c #1F8DBA",
"V. c #2C83A5",
"C. c #228CB8",
"Z. c #5A9595",
"A. c #4590A0",
"S. c #838383",
"D. c #898684",
"F. c #8C8B8B",
"G. c #938E8B",
"H. c #9D8F89",
"J. c #998B84",
"K. c #9E9089",
"L. c #939089",
"P. c #949493",
"I. c #9B9692",
"U. c #9C9B9B",
"Y. c #9A9895",
"T. c #A4A2A2",
"R. c #A9A5A3",
"E. c #ABACAB",
"W. c #B1ADA9",
"Q. c #B6AEA3",
"!. c #AFB0B0",
"~. c #B5B5B4",
"^. c #BCBCBB",
"/. c #B9B8B6",
"(. c #C0BFBF",
"). c #BFC0BF",
"_. c #CEC8BD",
"`. c #C5C5C5",
"'. c #CDCECC",
"]. c #CFD0CF",
"[. c #D3D3D3",
"{. c #D8D8D8",
"}. c #DBD9D7",
"|. c #D7D4CE",
" X c #EEEEEC",
".X c #E8E7E4",
"XX c #F0EFED",
"oX c #F2F1EE",
"OX c #F4F4F3",
"+X c #FCFDFD",
"@X c #F7F8F7",
"#X c None",
"$X c black",
/* pixels */
"#X#X#X#X#X#X#X#X#X#X#X#X#X#X#X#X#X#X#X#X#X#X#X#X#X#X#X#X#X#X#X#X#X#X#X#X#X#X#X#X#X#X#X#X#X#X#X#X#X#X#X#X",
"#X#X#X#X#X#X#X#X#X#X#X#X#X#X#X#X#X#X#X#X#X#X#X#X#X#X#X#X#X#X#X#X#X#X#X#X#X#X#X#X#X#X#X#X#X#X#X#X#X#X#X#X",
"#X#X#X#X#X#X#X#X#X#X#X#X#X#X#X#X#X#X#X#X#X#X#X#X#X#X#X#X#X#X#X#X#X#X#X#X#X#X#X#X#X#X#X#X#X#X#X#X#X#X#X#X",
"#X#X#X#X#X#X#X#X#X#X#X#X#X#X#X#X#X#X#X#X#X#X#X#X#X#X#X#X#X#X#X#X#X#X#X#X#X#X#X#X#X#X#X#X#X#X#X#X#X#X#X#X",
"#X#X#X#X#X#X#X#X#X#X#X#X#X#X#X#X#X#X#X#X#X#X#X#X#X`.`.#X#X#X#X#X#X#X#X#X#X#X#X#X#X#X#X#X#X#X#X#X#X#X#X#X",
"#X#X#X#X#X#X#X#X#X#X#X#X#X#X#X#X#X#X#X#X#X#X#Xi.%.|.}.5.i.#X#X#X#X#X#X#X#X#X#X#X#X#X#X#X#X#X#X#X#X#X#X#X",
"#X#X#X#X#X#X#X#X#X#X#X#X#X#X#X#X#X#X=.8.9.r u.u.5.R.W.8.i.u.t 8.8.8.#X#X#X#X#X#X#X#X#X#X#X#X#X#X#X#X#X#X",
"#X#X#X#X#X#X#X#X#X#X#X#X#X#X#X8.u.r =.t.i.*.0.i.-.Y.U.%.i.8.*.u.t.8.t u.=.#X#X#X#X#X#X#X#X#X#X#X#X#X#X#X",
"#X#X#X#X#X#X#X#X#X#X#X#X#X2 %.u.S.%.X.0.t.=.o.i.%.'.'.%.i.-.-.t.0.O.o.u.u.8.1 #X#X#X#X#X#X#X#X#X#X#X#X#X",
"#X#X#X#X#X#X#X#X#X#X#X=.u.8.r 0.t.t.5 *.8.%.e -.G.W.W.G.o.r O.2.*.5 8.t.9.t 2.k.*.#X#X#X#X#X#X#X#X#X#X#X",
"#X#X#X#X#X#X#X#X#X#XS.D.i.t.5 -.8.8.2 X.X.t 2 5 2 2 2 2 5 1 t X.' 2 8.8.*.5 t.i.F.D.#X#X#X#X#X#X#X#X#X#X",
"#X#X#X#X#X#X#X#X#X8.P.i.9.9.O.t -.t 2 2 2 $ @ & @ @ @ @ & @ $ = 2 + t o.t O.0.t.u.F.9.#X#X#X#X#X#X#X#X#X",
"#X#X#X#X#X#X#X#Xy 5 8.8.8.8.O.2 2 - * : p p : 9 ) ) ) _ e : p d & * - 2 2 X.9.9.9.9.r y #X#X#X#X#X#X#X#X",
"#X#X#X#X#X#X#X#XF.0.5 =.*.o.5 $ : p p : d f s ] A.z.v.Z.| d l d : d : : $ 6 O.8.*.r 8.P.%.#X#X#X#X#X#X#X",
"#X#X#X#X#X#X#Xt.i.i.8.5 y 3 & d d p f A D Y G  .M.c.c.N...A p.Y S n d d p & 3 y r 8.t.i.u.#X#X#X#X#X#X#X",
"#X#X#X#X#X#X#Xu.i.0.0.X.# : p d b n Y R G T G  .C.v.f.B.} n p.T Y R S A d : : $ X.9.0.i.u.#X#X#X#X#X#X#X",
"#X#X#X#X#X#X-.X.t &.8.r @ d p A G D T R G p.D  .V.c.c.V.} S p.T Y R S T n p d * 5 8.2.t X.*.#X#X#X#X#X#X",
"#X#X#X#X#X#Xi.t.=.r r 3 : d s D G G Y Y Y p.G o.7.x.x.4.{ D p.Y Y T S p.S n d : - t 5 8.D.u.#X#X#X#X#X#X",
"#X#X#X#X#X#X8.L.9.8.2 @ p n h D I I R R Y a.D Y [ C.C.} n D s.T T T Y p.R A n : @ 5 8.8.t.u.#X#X#X#X#X#X",
"#X#X#X#X#X#X9.L.-.O.2 8 p S n S Y D T R Y a.D a.S ` i f Y D d.T T d.S T R A D p 0 5 %.8.t.t.=.#X#X#X#X#X",
"#X#X#X#X#X#XX.=.y t # M C m M L ! J ~ F D a.I a.G A f S Y Y a.T S ^ J ! ^ Z N c L # X.X.=.%.#X#X#X#X#X#X",
"#X#X#X#X#Xo.=.=.O.y O k m L J :.;.;.;.;.j a.I a.G S n D T T a.z >.+.~ >.:.J ~ Z z # y X.=.=.%.#X#X#X#X#X",
"#X#X#X#X#X=.t.0.t.8.2 z a j j j c a x , f a.D d.G A n D p.T s.S ; < 8 B j j j 8 z = 8.0.8.t.8.#X#X#X#X#X",
"#X#X#X#X#X=.e.Q.0.8.5 > : f s n n s n D Y R D d.G n g G a.T a.R A S s S n f f : 8 2 8.%.=.0.8.#X#X#X#X#X",
"#X#X#X#X#X=.9.y.k.8.5 j s G n Y R S Y T Y p.D a.G S n I a.T a.R D R S a.p.G S f j 3 =.X.o.8.*.#X#X#X#X#X",
"#X#X#X#X#X=.0._.=.8.3 J x m M W Q M W I Y T D a.G S S G a.T R R D Q M ^ Q N m z ;.= =.O.%.8.=.#X#X#X#X#X",
"#X#X#X#X#X-.-.w.$.8.3 k Z ! ;.,.,.,.,.+.m Y D R G S n G a.T p.N +.>.1.3.1.! ^ Z z 2 %.t o.y =.#X#X#X#X#X",
"#X#X#X#X#Xt %.=.-.O.= a a x j x c V c ; s I D a.S A n G R Y R n ; c c x c x x j z = o.%.-.*.t #X#X#X#X#X",
"#X#X#X#X#X5 -.=.=.%.+ j : s d f s s f S G G D R D n n G R I R R S l s s s d s p j # o.=.8.*.5 #X#X#X#X#X",
"#X#X#X#X#X8.i.t.i.8.4 , h n f G D D E Y G G D R D n b G R D Y p.Y G A T A A A n p 3 8.i.t.t.8.#X#X#X#X#X",
"#X#X#X#X#X=.0.t.9.=.4 s h :.b Q ^ S ^ Q S <.n ( U n g F <.D <./ F :.A / ~ n ;.m s 3 *.9.t.9.8.#X#X#X#X#X",
"#X#X#X#X#X*.0.=.*.*.2 s s /.c w.w.z G.6.j ~.j G.1.n b ;.U.m Y.L L E.m 6.b.z ~.c s 3 %.*.=.9.8.#X#X#X#X#X",
"#X#X#X#X#X1 r r t r + s m XX'.r   U.+X@X  2 F.@XK.n n h. XE.  + [.+X{.t   Y.+X,.s + r y t t 2 #X#X#X#X#X",
"#X#X#X#X#X8.F.D.S.0.3 s m .X`.9 + Y..X X+ 9 S.OXJ.n n h.OXE.+ + `..X].+ + Y. X,.s 2 8.S.S.F.0.#X#X#X#X#X",
"#X#X#X#X#X8.0.t.8.%.3 s s X y +X+X0.3 X .X@XF.+ 0 b g 0 # =.+XXXy + 5 +X+Xt.2 ; s 2 %.9.t.t.8.#X#X#X#X#X",
"#X#X#X#X#X*.8.9.8.O.2 s s 2 y +X+X0.  X +X+XF.> K V B K 8 =.+X@Xy   t +X+X0.q ; s 3 X.8.t.t.=.#X#X#X#X#X",
"#X#X#X#X#Xy o.t r 5 O s s %.8./.^.u.%.-././.F.V 7 < 8 - c i.~.~.9.%.t.~.~.u.&.x s + 5 t ` o.y #X#X#X#X#X",
"#X#X#X#X#X8.u.X.9.t.5 s b +X'.  X T.+X+X  + S.~.K , , C T.~.    '.+X{.5 + Y.+X,.s 3 0.0.X.u.8.#X#X#X#X#X",
"#X#X#X#X#Xt O.t O.X.2 s b @X'.  X R.+X@X    S.+XJ.b b h.+XE.4   '.+X{.3 u U.+X,.s = y %.t o.t #X#X#X#X#X",
"#X#X#X#X#X#X8.8.=.o.O s s 0.F.Y.P.S.t.D.Y.F.D.I.+.g f L S.u.U.Y.D.t.i.Y.Y.S.t.c s # o.8.8.8.o.#X#X#X#X#X",
"#X#X#X#X#X8.u.u.t.0.2 +.<   y +XOX0.+ + +X@XF.2 7 n g 8 3 t.+X+Xy   5 +X+X0.  $ L 5 9.t.t.u.8.#X#X#X#X#X",
"#X#X#X#X#X*.0.0.9.8.2 C P L K #.>.#.#.B (.+XF.+ > n f < = =. X[.@.#.+.;.+.J J J Z 3 8.0.t.t.8.#X#X#X#X#X",
"#X#X#X#X#XX.9.8.8.8.2 s b Z b ! J L J c $ X.D.'.l.b s ;   =.XXk.C J ! P ~ M Z c z 7 8.9.8.9.o.#X#X#X#X#X",
"#X#X#X#X#X+ w X.X.y + a & % 9 b.n.O.o   = . S.+XK.n f ;   =.OX+Xt + 3 D.D.H o % j + t X.O.r + #X#X#X#X#X",
"#X#X#X#X#X%.u.0.0.=.# , p #.X.+X+Xt.X + '.{.~.+XH.n f ; + t.+X+XX.5 r OX+Xt.r ; < # =.0.0.i.o.#X#X#X#X#X",
"#X#X#X#X#X8.t.0.8.*.5 s m +X'.q   U.OX+X9 o t.+XH.n f j.+XU.  = '.+X{.B # U.+X,.s 3 -.8.0.t.8.#X#X#X#X#X",
"#X#X#X#X#X*.9.8.*.X.5 s k ).k.O.9 r.~.R.o =.@.~.w.b s 1.^.w.t 7 D.^.n.3 H q.`.L s 3 X.-.8.9.=.#X#X#X#X#X",
"#X#X#X#X#XX.-.o.X.t 3 s s R.k g.g.A j.,.m W.n j.>.g s J G.S I.Q Z I.f 6.m.b R.c s 3 5 y O.%.X.#X#X#X#X#X",
"#X#X#X#X#X#X#X#X#X#X#X#X#X#X#X#X#X#X#X#X#X#X#X#X#X#X#X#X#X#X#X#X#X#X#X#X#X#X#X#X#X#X#X#X#X#X#X#X#X#X#X#X",
"#X#X#X#X#X#X#X#X#X#X#X#X#X#X#X#X#X#X#X#X#X#X#X#X#X#X#X#X#X#X#X#X#X#X#X#X#X#X#X#X#X#X#X#X#X#X#X#X#X#X#X#X",
"#X#X#X#X#X#X#X#X#X#X#X#X#X#X#X#X#X#X#X#X#X#X#X#X#X#X#X#X#X#X#X#X#X#X#X#X#X#X#X#X#X#X#X#X#X#X#X#X#X#X#X#X",
"#X#X#X#X#X#X#X#X#X#X#X#X#X#X#X#X#X#X#X#X#X#X#X#X#X#X#X#X#X#X#X#X#X#X#X#X#X#X#X#X#X#X#X#X#X#X#X#X#X#X#X#X"
};
