/* XPM */
static const char *player[] = {
/* columns rows colors chars-per-pixel */
"52 52 222 2 ",
"   c #3A342E",
".  c #43362D",
"X  c #583F2E",
"o  c #473B33",
"O  c #583D33",
"+  c #55402E",
"@  c #4C443C",
"#  c #4E483F",
"$  c #554336",
"%  c #52463B",
"&  c #5D4C3D",
"*  c #594839",
"=  c #624E3D",
"-  c #6B4D3B",
";  c #6B4D37",
":  c #724E3C",
">  c #64523E",
",  c #6B523C",
"<  c #71543E",
"1  c #775B3D",
"2  c #544C42",
"3  c #5A4E43",
"4  c #5C5146",
"5  c #5D5448",
"6  c #614C41",
"7  c #635342",
"8  c #695442",
"9  c #6D5945",
"0  c #625649",
"q  c #655A4C",
"w  c #6B5B4B",
"e  c #735742",
"r  c #735A44",
"t  c #7B5D43",
"y  c #735E4B",
"u  c #7A5F4B",
"i  c #785645",
"p  c #6B5F51",
"a  c #725E50",
"s  c #6E604E",
"d  c #7D6245",
"f  c #74604C",
"g  c #7D634B",
"h  c #776147",
"j  c #6C6150",
"k  c #736454",
"l  c #7D6452",
"z  c #7B6A54",
"x  c #736759",
"c  c #756859",
"v  c #7B6C5C",
"b  c #766856",
"n  c #7E715F",
"m  c #776D62",
"M  c #7D7264",
"N  c #805C47",
"B  c #805F4D",
"V  c #826246",
"C  c #83644B",
"Z  c #88644C",
"A  c #866A4C",
"S  c #8B6A4C",
"D  c #926F4E",
"F  c #8B6E54",
"G  c #826D5B",
"H  c #866A55",
"J  c #936E52",
"K  c #946F58",
"L  c #84725D",
"P  c #8B735C",
"I  c #8E7251",
"U  c #957354",
"Y  c #9B7555",
"T  c #95745A",
"R  c #9A765C",
"E  c #91795B",
"W  c #9B7B5C",
"Q  c #97704C",
"!  c #A27854",
"~  c #A57E5A",
"^  c #806D60",
"/  c #847563",
"(  c #8B7665",
")  c #8B7A64",
"_  c #847669",
"`  c #8C7B6B",
"'  c #877969",
"]  c #967863",
"[  c #907D71",
"{  c #A17E60",
"}  c #A2845F",
"|  c #8F826C",
" . c #8D8065",
".. c #9C8264",
"X. c #93836D",
"o. c #9D826A",
"O. c #98896D",
"+. c #8D8378",
"@. c #948373",
"#. c #9B8674",
"$. c #978875",
"%. c #9C8B75",
"&. c #94857A",
"*. c #95897B",
"=. c #9C8A7A",
"-. c #9D8678",
";. c #A48264",
":. c #A4866A",
">. c #AB8C6D",
",. c #A98868",
"<. c #B1916F",
"1. c #A28B72",
"2. c #AC8E74",
"3. c #A48B7A",
"4. c #AD9274",
"5. c #A5927C",
"6. c #AD987C",
"7. c #B39474",
"8. c #B4957A",
"9. c #B6997A",
"0. c #BB9B7D",
"q. c #B99978",
"w. c #BCA17F",
"e. c #958D84",
"r. c #9E8D81",
"t. c #9D9589",
"y. c #A69583",
"u. c #AD9C84",
"i. c #A49A8C",
"p. c #A6988B",
"a. c #B39C83",
"s. c #BC9D81",
"d. c #B79A84",
"f. c #A79D92",
"g. c #B4A384",
"h. c #BCA384",
"j. c #B7A48C",
"k. c #BBA38B",
"l. c #BFA88E",
"z. c #AEA399",
"x. c #BAA592",
"c. c #BAA996",
"v. c #B9AEA2",
"b. c #C3A485",
"n. c #C4A48C",
"m. c #C4AB8B",
"M. c #CAAC8C",
"N. c #C8A688",
"B. c #D1AD8F",
"V. c #C4AC94",
"C. c #CBAE93",
"Z. c #C6AA96",
"A. c #D0AF94",
"S. c #D0AF99",
"D. c #C5B295",
"F. c #CDB395",
"G. c #CEB994",
"H. c #CDB39A",
"J. c #CDB99B",
"K. c #C5B298",
"L. c #D1B495",
"P. c #D1B996",
"I. c #D2B49A",
"U. c #D4BB9C",
"Y. c #D9BB9D",
"T. c #DAB798",
"R. c #C4B38D",
"E. c #CCB9A5",
"W. c #D4BBA2",
"Q. c #DABCA2",
"!. c #D1BAA7",
"~. c #D6C09E",
"^. c #D6C1A4",
"/. c #DAC3A4",
"(. c #D5C1AA",
"). c #DDC4AB",
"_. c #DDCAAD",
"`. c #DFC3B2",
"'. c #DECBB2",
"]. c #DDD3BB",
"[. c #E1C4AB",
"{. c #E2CAAC",
"}. c #E3C6A3",
"|. c #E3CCB4",
" X c #E9CEB2",
".X c #E4CEBA",
"XX c #E3C5B4",
"oX c #E3D2B3",
"OX c #EAD3B6",
"+X c #E4D4BD",
"@X c #EBD4BD",
"#X c #EBD9BD",
"$X c #E5D5AC",
"%X c #DDCCC2",
"&X c #DDD3C2",
"*X c #E4D4C3",
"=X c #EBD6C2",
"-X c #E7DAC2",
";X c #EBDBC4",
":X c #ECDCCA",
">X c #E8D6C9",
",X c #F2DAC5",
"<X c #F3DECB",
"1X c #F4DACA",
"2X c #F1DFD1",
"3X c #EFE0C6",
"4X c #EEE2CA",
"5X c #F2E3CD",
"6X c #F8E3CC",
"7X c #F7E9CD",
"8X c #EEE4D4",
"9X c #EFE3DB",
"0X c #F4E5D2",
"qX c #F9E4D3",
"wX c #FCECD5",
"eX c #FBEBD9",
"rX c #F6E9D5",
"tX c #FFF1DB",
"yX c #FEF3E2",
"uX c #FFF8E5",
"iX c None",
"pX c black",
/* pixels */
"iXiXiXiXiXiXiXiXiXiXiXiXiXiXiXiXiXiXiXiXiXiXiXiXiXiXiXiXiXiXiXiXiXiXiXiXiXiXiXiXiXiXiXiXiXiXiXiXiXiXiXiX",
"iXiXiXiXiXiXiXiXiXiXiXiXiXiXiXiXiXiXiXiXiXV & v w w q b k = iXiXiXiXiXiXiXiXiXiXiXiXiXiXiXiXiXiXiXiXiXiX",
"iXiXiXiXiXiXiXiXiXiXiXiXiXiXiXJ g U iXiXiXr 3 / / ( ) / v % iXiXiX! S Z Y iXiXiXiXiXiXiXiXiXiXiXiXiXiXiX",
"iXiXiXiXiXiXiXiXiXiXiXiXiXiXV 7 5 . U iXiXr | F.L.Y.U.H.F.w iXiXiXV o p 7 D U iXiXiXiXiXiXiXiXiXiXiXiXiX",
"iXiXiXiXiXiXiXiXiXiXiXiXiXu v M c.m A iXiXt #.W.F.J.H.F.I.f iXiXiXt = y c v u U iXiXiXiXiXiXiXiXiXiXiXiX",
"iXiXiXiXiXiXiXiXiXiXiXiXr / @.*XtX` C iXiX* X.Q.F.H.G.F.J.0 d iXiXt r U g v G h iXiXiXiXiXiXiXiXiXiXiXiX",
"iXiXiXiXiXiXiXiXiXiXiX1 q / .X5XwX' 8 w q @ #.U.L.L.F.F.U.q 2 q k = r U R g v 3 U iXiXiXiXiXiXiXiXiXiXiX",
"iXiXiXiXiXiXiXiXiXiXiX7 5 #.@X;XwXM q &.c.K.L.T.F.F.L.H.K.M.h.) k # r T T >.w 0 C iXiXiXiXiXiXiXiXiXiXiX",
"iXiXiXiXiXiXiXiXiXiXiX> 3 ^ [..X,Xc.E.@X/.W.U.Y.Y.Y.U.U.U.F.F.w.:.g F R ..2.5 3 V iXiXiXiXiXiXiXiXiXiXiX",
"iXiXiXiXiXiXiXiXiXiXiX> # q 6.{.|.#X+X{.W.k.1./ / / / ` 1.a.h.b.7.>.:.:.8.L q 3 A iXiXiXiXiXiXiXiXiXiXiX",
"iXiXiXiXiXiXiXiXiXiXiX9 P k c 5.W.|.W.%.` X.=.u.x.j.k.a.#.$.v v 1.0.9.4.( k 3.=.d iXiXiXiXiXiXiXiXiXiXiX",
"iXiXiXiXiXiXiXiXiXiXiX8 ] R y 4 v @._ u.^.{. X{.`././._.{.{./.x.( G L q 5 -. Xr.d iXiXiXiXiXiXiXiXiXiXiX",
"iXiXiXiXiXiXiXiXiXiXiX8 P ;.] u 3 o W.|._.W.k.j.J.W.W.D.s.c.Q.{. X[   c u.{.@Xt.d iXiXiXiXiXiXiXiXiXiXiX",
"iXiXiXiXiXiXiXiXiXiXiX, P R R ,.z 3 W._.OX@.2 v v x c n c # Z.{.$Xy.% J.oX|.3Xp.t iXiXiXiXiXiXiXiXiXiXiX",
"iXiXiXiXiXiXiXiXiXiXiX8 P U Y } z 4 E.[.{.| v ` n v v n X.w V.|.OX5.2 J.|.+X6Xp.t iXiXiXiXiXiXiXiXiXiXiX",
"iXiXiXiXiXiXiXiXiXiXiX8 P R T ..l # j./. XX.h.Q.H.L.J.L.}.` D. X_.X.@ !.=X-XqXi.t iXiXiXiXiXiXiXiXiXiXiX",
"iXiXiXiXiXiXiXiXiXiXiX8 P R T W l 0 ` @.u.x u.Y.I.L.L.U.W./ @.5.| v p _.#X;XeXf.t iXiXiXiXiXiXiXiXiXiXiX",
"iXiXiXiXiXiXiXiXiXiXiX8 E Y U ] :.W H v k 3 d.U.H.H.G.G.U.) 4 c / y.|.@X;X<XwXf.t iXiXiXiXiXiXiXiXiXiXiX",
"iXiXiXiXiXiXiXiXiXiXiXr L ~ Y R ;.>.7.0.g.m.F.H.J.F.F.F.T.F.l.V._.OX#X@X,X5XtX+.V iXiXiXiXiXiXiXiXiXiXiX",
"iXiXiXiXiXiXiXiXiXiXiXA a ,.T R ;.,.8.s.F.I.F.G.F.T.F.H.L.I.W./.[.|.-X-X4X8X:Xb Y iXiXiXiXiXiXiXiXiXiXiX",
"iXiXiXiXiXiXiXiXiXiXiXiXy P ;.W } ,.8.b.D.F.F.B.H.F.K.L.L.J.Y./.).oX=X=X5XeX&.d iXiXiXiXiXiXiXiXiXiXiXiX",
"iXiXiXiXiXiXiXiXiXiXiXiXW f l } ;.:.7.h.Z.F.F.L.J.F.F.F.I.H.U.^.'..X-X<X-X*.g iXiXiXiXiXiXiXiXiXiXiXiXiX",
"iXiXiXiXiXiXiXiXiXiXiXiXiXU r $ C 1.0.N.C.F.L.F.H.G.I.F.F.H.U.^.'.@X_.e.0 V iXiXiXiXiXiXiXiXiXiXiXiXiXiX",
"iXiXiXiXiXiXiXiXiXiXiXiXiXiXU * l 0 z 1.n.F.T.Y.~.W.Y.Q.Y.Y.U.D.y.+.&.p.7 iXiXiXiXiXiXiXiXiXiXiXiXiXiXiX",
"iXiXiXiXiXiXiXiXiXiXiXiXiXiXiX7 :.W F b k v L ` $.O.X.$._ G v ' p.E.<X+Xw iXiXiXiXiXiXiXiXiXiXiXiXiXiXiX",
"iXiXiXiXiXiXiXiXiXiXiXiXiXiXiX6 R R { 7.h.g.g.5.%.%.1.#.a.V.!.|.,X,X0X%Xw iXiXiXiXiXiXiXiXiXiXiXiXiXiXiX",
"iXiXiXiXiXiXiXiXiXiXiXiXiXiXiX& F F E ,.q.b.F.F.Q.C.Y.U.J.U.(.oX#X;X0X&X9 iXiXiXiXiXiXiXiXiXiXiXiXiXiXiX",
"iXiXiXiXiXiXiXiXiXiXiXiXiXiXiX3 H Z U ;.9.h.C.Q.-.3 v U.I.U.)..X=X:X0X].9 iXiXiXiXiXiXiXiXiXiXiXiXiXiXiX",
"iXiXiXiXiXiXiXiXiXiXiXiXiXiXiX& C N S o.6.h.M.1.q 0.G c W.W.).|.-X4X0X&X9 iXiXiXiXiXiXiXiXiXiXiXiXiXiXiX",
"iXiXiXiXiXiXiXiXiXiXiXiXiXiXiX$ t t I ..7.w.C.p 2.0.b.w k.U.^.|.-X;X7X%Xw iXiXiXiXiXiXiXiXiXiXiXiXiXiXiX",
"iXiXiXiXiXiXiXiXiXiXiXiXiXiXiX$ r d I ;.7.h.K.b 8.s.b.b j.Y.(.|.@X3X0X*Xy iXiXiXiXiXiXiXiXiXiXiXiXiXiXiX",
"iXiXiXiXiXiXiXiXiXiXiXiXiXiXC * i g J :.9.b.G.b ) o.:.w j.U./.XX@X4X2XrX/ Q iXiXiXiXiXiXiXiXiXiXiXiXiXiX",
"iXiXiXiXiXiXiXiXiXiXiXiXiX~ > , d C T 1.8.b.J.j c / / 3 k.U.^.`.@X;X4XeXz.d iXiXiXiXiXiXiXiXiXiXiXiXiXiX",
"iXiXiXiXiXiXiXiXiXiXiXiXiXS & t i Z W >.9.k.L./ v L / k n.I.^.{..X=X:X0X8Xb S iXiXiXiXiXiXiXiXiXiXiXiXiX",
"iXiXiXiXiXiXiXiXiXiXiXiXU % r < r F o.<.0.N.F.L.L.F.F.U.P.L.U./.|.@X:X<XeXv.> iXiXiXiXiXiXiXiXiXiXiXiXiX",
"iXiXiXiXiXiXiXiXiXiXiXiX8 9 d , t J :.7.w.N.F.F.P.H.G.F.F.F.H.(.'.+X,X1X5XyXt.V iXiXiXiXiXiXiXiXiXiXiXiX",
"iXiXiXiXiXiXiXiXiXiXiXU * u - , N U >.9.h.V.F.U.P.H.F.F.L.F.U.U._.OX#X<X6XqX*Xy iXiXiXiXiXiXiXiXiXiXiXiX",
"iXiXiXiXiXiXiXiXiXiXiXr 6 y , < C T >.q.b.M.K.F.F.H.A.L.L.I.H.W.Q.oX*X;X4X5XeX_ V iXiXiXiXiXiXiXiXiXiXiX",
"iXiXiXiXiXiXiXiXiXiXiX, 8 : - < d W ,.0.b.C.L.L.S.L.C.F.G.I.S.I.W.).+X-X:X5XwXi.t iXiXiXiXiXiXiXiXiXiXiX",
"iXiXiXiXiXiXiXiXiXiXiX= O , 8 e B R 4.d.n.F.L.F.F.L.L.F.C.C.F.U.U./.oX,X:X4XwXm t iXiXiXiXiXiXiXiXiXiXiX",
"iXiXiXiXiXiXiXiXiXiXiX> . ; ; e C W 4.9.n.A.F.P.F.J.H.F.G.F.H.J.^.'.oX#X;X0X&X2 d iXiXiXiXiXiXiXiXiXiXiX",
"iXiXiXiXiXiXiXiXiXiXiXe o + < e d R 4.w.M.C.F.L.H.L.L.I.L.F.P.I.U.}.OX-X<X<Xt.+.d iXiXiXiXiXiXiXiXiXiXiX",
"iXiXiXiXiXiXiXiXiXiXiX8 8 X $ 1 Z ] 2.g.m.F.I.H.L.F.F.F.I.H.I.L.Q.`.@XqX!.*.-Xz.t iXiXiXiXiXiXiXiXiXiXiX",
"iXiXiXiXiXiXiXiXiXiXiX8 8 , = o * K 7.N.M.L.H.C.L.I.F.L.F.L.P.Q.[.|.E.@.e.;XyXf.t iXiXiXiXiXiXiXiXiXiXiX",
"iXiXiXiXiXiXiXiXiXiXiXr 7 i i 1 , & w ) a.m.H.U.T.T.Y.^.U.F.m.k.@._ *.E.7XrXuX+.V iXiXiXiXiXiXiXiXiXiXiX",
"iXiXiXiXiXiXiXiXiXiXiXJ 7 Z t 1 C ] ..) v v c L ( ) ) ) M v n ' a.^.,X6X5XeX8Xv U iXiXiXiXiXiXiXiXiXiXiX",
"iXiXiXiXiXiXiXiXiXiXiX! 9 k F g C W 7.m.L.H.C.g.u.6.a.8.m.D.U.Y.[.|.=X5XwXuXe.d iXiXiXiXiXiXiXiXiXiXiXiX",
"iXiXiXiXiXiXiXiXiXiXiXiXY f a K E ;.7.h.R.I.L.L.J.I.J.U.H.J.L.I.W.|.;XtX9Xt.g E iXiXiXiXiXiXiXiXiXiXiXiX",
"iXiXiXiXiXiXiXiXiXiXiXiXiX~ g 3 G 4.h.n.C.F.L.L.H.F.L.P.H.I.I.~.[.=X>Xz.v S iXiXiXiXiXiXiXiXiXiXiXiXiXiX",
"iXiXiXiXiXiXiXiXiXiXiXiXiXiXiXA r w / 5.V.G.Y.Y.U.Y.Y.Y.U.Q.J.H.f.*.c t iXiXiXiXiXiXiXiXiXiXiXiXiXiXiXiX",
"iXiXiXiXiXiXiXiXiXiXiXiXiXiXiXiX! F g r 8 k c  .%.#.$.=./ c s w t V iXiXiXiXiXiXiXiXiXiXiXiXiXiXiXiXiXiX",
"iXiXiXiXiXiXiXiXiXiXiXiXiXiXiXiXiXiXiXiXiXiXiXiXiXiXiXiXiXiXiXiXiXiXiXiXiXiXiXiXiXiXiXiXiXiXiXiXiXiXiXiX"
};
