/* XPM */
static const char *player2[] = {
/* columns rows colors chars-per-pixel */
"52 52 83 1 ",
"  c black",
". c #060606",
"X c #090909",
"o c gray9",
"O c #181818",
"+ c #222222",
"@ c gray17",
"# c gray19",
"$ c #373737",
"% c #3C3C3C",
"& c #7C4C3E",
"* c gray26",
"= c #444444",
"- c #4E4E4E",
"; c #5D5D5D",
": c #7E4F41",
"> c #7F5143",
", c #676767",
"< c gray43",
"1 c #747474",
"2 c gray48",
"3 c gray50",
"4 c #805244",
"5 c #825547",
"6 c #875C50",
"7 c #885C50",
"8 c #895F53",
"9 c #8A6054",
"0 c #8E675B",
"q c #8F675C",
"w c #8F685C",
"e c #946D62",
"r c #9A786E",
"t c #9B7A70",
"y c #9E7E75",
"u c #A08077",
"i c #A18178",
"p c #808080",
"a c #868686",
"s c #8E8E8E",
"d c gray60",
"f c gray62",
"g c #A68981",
"h c #A98E86",
"j c #AB9088",
"k c #AC928A",
"l c #AD938C",
"z c #AF968F",
"x c #B09891",
"c c #B49E97",
"v c #A0A0A0",
"b c #A7A7A7",
"n c #AAAAAA",
"m c #AFAFAF",
"M c #BEACA7",
"N c #BFAEA8",
"B c #B4B4B4",
"V c gray72",
"C c #BCBCBC",
"Z c #C2B2AE",
"A c #C4B5B0",
"S c #C7B9B5",
"D c #CABEBA",
"F c #CDC1BE",
"G c #C0C0C0",
"H c #C6C6C6",
"J c #CBCBCB",
"K c gray80",
"L c #D0C6C3",
"P c #D2C9C7",
"I c #D6CECC",
"U c #D8D1CF",
"Y c #D5D5D5",
"T c #D8D2D0",
"R c #D9D4D2",
"E c #DCD8D6",
"W c #DADADA",
"Q c #DDD9D8",
"! c #DDDDDD",
"~ c #E1DFDF",
"^ c #E3E2E2",
"/ c #E4E2E2",
"( c gray90",
/* pixels */
"5444444444444444444444444444444444444444444444444440",
":&&&&&&&&&&&&&&&&&&&&&&&&&&&&&&&&&&&&&&&&&&&&&&&&&&8",
":&&&&&&&&444444:&&&&&&44444444&&&&&&:444444&&&&&&&&8",
":&&&&&&&A^^^^^^F&&&&&x^^^^^^^^j&&&&:P^^^^^^M&&&&&&&8",
":&&&&&&&U(WWWW(~:&&&&A(!WWWW!(M&&&&4/(WWWW(P&&&&&&&8",
":&&&&&&&U(O  X!~86666S(*    -(Z66669/Y   +(P&&&&&&&8",
":&&&&&&&U(o  .!((((((((*    -((((((((Y   +(P&&&&&&&8",
":&&&&&&&U(o   dHHHHHHHVO    +CHHHHHHHs   +(P&&&&&&&8",
":&&&&&&&U(o                              +(P&&&&&&&8",
":&&&&&&&U(o                              +(P&&&&&&&8",
":&&&&&&&T(bvvvvvvvvvvvvvvvvvvvvvvvvvvvvvvn(P&&&&&&&8",
":&&&&&&&I((((((((((((((((((((((((((((((((((L&&&&&&&8",
":&&&&&&&qE(H*%%%%%%%%%%%%%%%%%%%%%%%%%%=K(T9&&&&&&&8",
":&&&&&&&&0E(f.                        Xb(T8&&&&&&&&8",
":&&&&&&&&&0E(f************************n(T8&&&&&&&&&8",
":&&&&&&&&&&0E((((((((((((((((((((((((((T8&&&&&&&&&&8",
":&&&&&&&&&&&l(GddddddddddddddddddddddH(g&&&&&&&&&&&8",
":&&&&&&&&&&&k(1                      3(g&&&&&&&&&&&8",
":&&&&&&&&&&&k(1                      3(g&&&&&&&&&&&8",
":&&&&&&&&&&&k(1                      3(g&&&&&&&&&&&8",
":&&&&&&&&&&&k(1                      3(g&&&&&&&&&&&8",
":&&&&&&&&&&&k(1                      3(g&&&&&&&&&&&8",
":&&&&&&&&&&&k(1                      3(g&&&&&&&&&&&8",
":&&&&&&&&&&&k(1                      3(g&&&&&&&&&&&8",
":&&&&&&&&&&&k(1                      3(g&&&&&&&&&&&8",
":&&&&&&&&&&&k(1                      3(g&&&&&&&&&&&8",
":&&&&&&&&&&&k(1                      3(g&&&&&&&&&&&8",
":&&&&&&&&&&&k(1                      3(g&&&&&&&&&&&8",
":&&&&&&&&&&&k(1                      3(g&&&&&&&&&&&8",
":&&&&&&&&&&&k(1                      3(g&&&&&&&&&&&8",
":&&&&&&&&&&&k(1                      3(g&&&&&&&&&&&8",
":&&&&&&&&&&&k(1                      3(g&&&&&&&&&&&8",
":&&&&&&&&&&&k(BppppppppppppppppppppppV(g&&&&&&&&&&&8",
":&&&&&&&&&&&z((((((((((((((((((((((((((h&&&&&&&&&&&8",
":&&&&&&&&&&5R(3;;;;;;;;;;;;;;;;;;;;;;a(I>&&&&&&&&&&8",
":&&&&&&&&&&c(m                       .V(z&&&&&&&&&&8",
":&&&&&&&&:y^(<========================1(~t&&&&&&&&&8",
":&&&&&&&&i((((((((((((((((((((((((((((((((r&&&&&&&&8",
":&&&&&&&&g(HffffffffffffffffffffffffffffJ(u&&&&&&&&8",
":&&&&&&&&g(p                            s(u&&&&&&&&8",
":&&&&&&&&g(p                            s(u&&&&&&&&8",
":&&&&&&&&g(p                            s(u&&&&&&&&8",
":&&&&wjjjZ(m,,,,,,,,,,,,,,,,,,,,,,,,,,,,B(Njjj0&&&&8",
":&&&&F((((((((((((((((((((((((((((((((((((((((S&&&&8",
":&&&&L(a112333333333333333333333333333333211s(D&&&&8",
":&&&&L(+                                    #(D&&&&8",
":&&&&L(@XXXXXXXXXXXXXXXXXXXXXXXXXXXXXXXXXXXX$(D&&&&8",
":&&&&L((((((((((((((((((((((((((((((((((((((((D&&&&8",
":&&&&cQQEEEEEQQQQQQQQQQQEEEEEQQQQQQQQQQEEEEEEQz&&&&8",
":&&&&&&&&&&&&&&&&&&&&&&&&&&&&&&&&&&&&&&&&&&&&&&&&&&8",
":&&&&&&&&&&&&&&&&&&&&&&&&&&&&&&&&&&&&&&&&&&&&&&&&&&8",
"888888888888888888888888888888888888888888888888888e"
};
