/* XPM */
static const char *wall3[] = {
/* columns rows colors chars-per-pixel */
"52 52 72 1 ",
"  c #464747",
". c #4B4C4C",
"X c #535354",
"o c #5C5C5C",
"O c #646465",
"+ c #676768",
"@ c #676868",
"# c #6C6C6C",
"$ c #6F6F70",
"% c #747474",
"& c #777878",
"* c #7C7C7C",
"= c #7F807F",
"- c #80807F",
"; c #7F7F80",
": c #807F80",
"> c #7F8181",
", c #828383",
"< c #878788",
"1 c #878889",
"2 c #8B8B8B",
"3 c #8F9090",
"4 c #929394",
"5 c #979798",
"6 c #979898",
"7 c #9B9B9B",
"8 c #A09FA0",
"9 c #9FA0A0",
"0 c #A4A4A4",
"q c #A7A8A7",
"w c #A7A7A8",
"e c #A8A7A8",
"r c #A7A8A8",
"t c #ACACAC",
"y c #B0AFAF",
"u c #AFB0AF",
"i c #B0B0AF",
"p c #AFAFB0",
"a c #B0AFB0",
"s c #AFB0B0",
"d c #B0B0B0",
"f c gray70",
"g c #B3B4B3",
"h c #B3B4B5",
"j c #B6B5B6",
"k c #B7B8B7",
"l c #B7B7B8",
"z c #B7B8B8",
"x c #BAB9BA",
"c c #BBBBBC",
"v c #BBBCBC",
"b c #BCBCBC",
"n c gray75",
"m c #C0C0BF",
"M c #BFBFC0",
"N c #C0BFC0",
"B c #BFC0C0",
"V c #C3C3C3",
"C c #C4C3C3",
"Z c #C3C4C3",
"A c #C4C4C3",
"S c #C3C3C4",
"D c #C4C3C4",
"F c #C3C4C4",
"G c gray77",
"H c #C9CAC9",
"J c #CDCDCD",
"K c #D2D2D2",
"L c gray83",
"P c #D5D4D4",
"I c #D7D7D7",
"U c #DADADA",
/* pixels */
"UUIJJJJJHVVVVVVVVVVVVGJJJJJJJGDGDxx*,CGKJJJJJJHGGGdt",
"UUKAGDCVVVVVVVVVVVVVVVVVVVVVVVVDDdt&&SGGGGGGDVFGGGxd",
"IJHVVVVZVVVVVVVVVVVVVVVVVVZVVVVVZdt&*AZAGDVVVVVVGGdt",
"IGDVVVVVVVVVVVVVVVVVVVVVVVVVVVVVVdt&*GVVVVVVVVVVDGt0",
"IGVVVVVVVVVVVVVVVVVVVVVVVVVVVVVVVdt&&GVVVVVVVVVVVGt0",
"IDVVVVVVVVVVVVVVVVVVVVVVVVVVVVVVVdt&&FVVVVVVVVVVVGt0",
"IVVVVVbjjjjjVVVVVVVVVVVVVVVVVVVVVdt*<VVAVVVVVVVVVSt0",
"IVVVVVxdddddNVVVVVVVVVVVVVVVVVVVStt,<GVVVVVVVVVVVSt0",
"IVVVVVxdddddjjjjVVVVVVVVVVVVVVVxj2<00jjjxVVVVVVVVSt0",
"IZVVVVxdddddddddVVVVVVVVVVVVVVFjd,*ttuddjVVVVVVVSSt0",
"IVVVVVxdddddddbMVVVVVVVVVVVVVxj4<00ttiddjVVVVVVVVFt0",
"ICVVVVxadddddaVVVVVVVVVVVVVVVjd1*ttttdypjVVVVVVVSGt0",
"IDVVVVVNjdvVVVVVVVVVVVVVVVVVV7<70bVVbtppjVVVVVVVjtw0",
"IDVVVVVVjdbVVVVVVVVVVVVVVVVVS4>0tmCVVtssjVVVVVVGhw00",
"IZVVVVVVVVVVVVVVVVVVVVVVVVVxd74jVZVVVVVVVVVVxd7<<<,,",
"IFVVVVVVVVVVVVVVVVVVVVVVVVVjp74xVVVVVVVVVVVVxs4*,<,*",
"IGVVVVVVVVVVVVVVVVVVVVVVVxd74dVVVVVVVVVVVVvp047tttt0",
"IGVVVVVVVVVVVVVVVVVVVVVVVxp74gVVVVVVVVVVVVxt040tttte",
"GGSVVVVVVVVVVVVVVVVVVVVVVt4sVVVVVVVVVVVVbtjDDVVCGGp0",
"VVVVVVVVVVVVVVVVVVVVVVVVVt4dVVVVVVVVVVVVbsjVVVVVVGt0",
"O*4VVVVVVZVVVVVVVVVVVVVVVztxVVVVVVVVVVVVVVVVVVVVVVt0",
"@,4bxxxxbbVVVVVVVVVVVVVVVxdvVVVVVVVVVVVVVVVVVVVVVVt0",
"UUx&+XXX#*tVVVSFVVVVVVVVVVVVVVVVVVVVVVVVVVVVVVVVVVt0",
"UUb<&OOO&<txxcVVVVVVVVVVVVVVVVVVVVVVVVVVVVVVVVVVVVt0",
"UUKVVVxtts2,22tddsdjVVVVVVVVVVVVVVVVVVVVVVVVVVVVVVt0",
"UIJVVVxdhd72440thhjzVVVVVVVVVVVVVVVVVVVVVVVVVVVVVSt0",
"IGGZVVVVZVVVds44VVVVVVVVVVVVVVVVVVVVVVVVVVVVVVVVVSt0",
"IGVVVVVVVVVVdt44bvVVVVVVVVVVVVVVVVVVVbBVVVVVVVVVSGt0",
"IGVVVVVVVVVVdt44ttVVVVVVVVVVVVVVVVVVVdjSVVVVVVVVGGt0",
"IDVVVVVVVVVVjj770rVVVVVVVVVVVVVVVVVVVjzbMVVVVVVSbbt0",
"ICVVVVVVVVVVVVdt47VVVVVVVVVVVVVVVVVVVVNdjVVVVVVSd000",
"IDVVVVVVVVVVVVjj00VVVVVVVVVVVVVVVVVVVVNdtt0777707557",
"ICVVVVVVVVVVVVVVVVVVVVVVVVVVVVVVVVVVVVbt0*@...Xo%,-,",
"IZVVVVVVVVVVVVVVVVVVVVVVVVVVVVVVVVVVVVx744<&&*,<24%@",
"KVVVVVVVVVVVVVVVVVVVVVVVVVVVVVVVVVVVVVj*<tjGVVAGjtO.",
"KVVVVVVVVVcxVVVVVVVVVVVbxbVVVVVVVVVxztt70jbVVAZVjt,#",
"IVVVVVVVVVjsbVVVVVVVVVVxtxVVVVVVVVVst47DVVVVVVVVjt87",
"IVVVVVVVbxdsbVVVVVVVVVVxt0090dxVVVV00tdVVVVVVVVVjt07",
"IVVVVVVVjssdbVVVVVVVVVVct7<<<0tbVVV70VVVVVVVVVVVjt07",
"IVVVVVVVjszbVVVVVVVVVVzxvgt0044tkVVdjVVVVVVVVVVVjt97",
"IVVVVVVVjsbVVVVVVVVVVbdxZAZxp3<rsVVVVVVVVVVVVVVVjt97",
"HVVVVVVVbbVVxjVVVVZVldthVVVbc07<,bCVVVVVVVVVVVVVjt07",
"GVVVVVVVVVVVdpVVVVVVdt0dVVVVVdw&#xCVVVVVVVVVVVVVjt07",
"DVVVVVVVVVVVbbVVVVjd0rxbVVVVVbx#XjCVVVVVVVVVVVVVjt87",
"DVVVVVVVVVVVVVVVVVpt70AVVVVVVVS@.jGVVVVVVVVVVVVVjt87",
"GVVVVVVVVVVVVVVVVV76<7FVVVVVVVV,%tsVVVVVVVVVVVVVjt42",
"GVVVVVVVVVVVVVVVVb74>4VVVVVVVVV2*0tVVVVVVVVVVVVVjt4<",
"GGVVVVVVVVVVVVVVdt,2xbVVVVVVVVVt0&%VVVVVVVVVVVSDt92,",
"GGDVVVVVVVVVVVVVtt*2DVVVVVVVVVGt0$@VVVVVVVVVVDGGt7<,",
"ddjVVVVVVVVVVVdt&&;2CCVVVVVVVVGtwX.ttDVVVVVVVCjt4,,,",
"ttjVVVVVVVVVVVtt%&;2GVVDVVVVVVVttX wtVVVVVVVVVjt4,:,",
"7ttttttttttttt2<oo00tttttttttte42X 24ttttttttq4,,,=-"
};
