/* XPM */
static const char *wall2[] = {
/* columns rows colors chars-per-pixel */
"52 52 121 2 ",
"   c #020202",
".  c #090909",
"X  c #151515",
"o  c #1B1B1B",
"O  c #272727",
"+  c #282727",
"@  c #272827",
"#  c #282728",
"$  c #2C2C2C",
"%  c #2F302F",
"&  c #303030",
"*  c #3A3A3A",
"=  c #454545",
"-  c #4D4D4D",
";  c #50504F",
":  c #565555",
">  c #5C5C5C",
",  c #5F5F60",
"<  c #605F60",
"1  c #656566",
"2  c #6B6B6C",
"3  c #747373",
"4  c #7C7C7C",
"5  c #828384",
"6  c #888787",
"7  c #8E8E8E",
"8  c #908F8F",
"9  c #90908F",
"0  c #8F8F90",
"q  c #908F90",
"w  c #8F9091",
"e  c #929292",
"r  c #979897",
"t  c #959698",
"y  c #9C9D9C",
"u  c #A09F9F",
"i  c #A3A4A4",
"p  c #A7A8A9",
"a  c #ABABAB",
"s  c #B3B4B4",
"d  c #BBBCBC",
"f  c #BFBFC0",
"g  c #C0BFC0",
"h  c #BFC0C0",
"j  c #C0C0C0",
"k  c #C0C0C1",
"l  c #C0C1C1",
"z  c #C1C1C1",
"x  c #C1C1C2",
"c  c gray76",
"v  c #C3C2C2",
"b  c #C2C3C2",
"n  c #C3C3C2",
"m  c #C2C2C3",
"M  c #C3C2C3",
"N  c #C2C3C3",
"B  c #C3C3C3",
"V  c #C4C3C3",
"C  c #C3C4C3",
"Z  c #C3C3C4",
"A  c #C4C3C4",
"S  c #C3C4C4",
"D  c gray77",
"F  c #C4C4C5",
"G  c #C5C5C5",
"H  c #C6C6C6",
"J  c #C7C6C6",
"K  c gray78",
"L  c #C8C8C8",
"P  c #C9C8C8",
"I  c #C9C9C8",
"U  c #C9C8C9",
"Y  c gray79",
"T  c #C9CAC9",
"R  c #CACACA",
"E  c gray80",
"W  c #CDCCCC",
"Q  c #CDCDCD",
"!  c #CECECD",
"~  c #CDCDCE",
"^  c gray81",
"/  c #D0D1D0",
"(  c #D1D1D0",
")  c gray82",
"_  c #D1D2D1",
"`  c #D2D2D1",
"'  c #D2D1D2",
"]  c #D2D2D2",
"[  c #D5D4D4",
"{  c #D4D5D4",
"}  c #D5D5D4",
"|  c #D5D4D5",
" . c #D5D5D5",
".. c #D6D5D5",
"X. c #D5D6D5",
"o. c #D6D6D5",
"O. c #D5D5D6",
"+. c #D7D6D6",
"@. c #D7D7D6",
"#. c #D8D8D8",
"$. c #D8D8D9",
"%. c gray85",
"&. c #D9DADA",
"*. c #DADADA",
"=. c gray86",
"-. c #DCDCDB",
";. c #DDDDDD",
":. c #DDDEDE",
">. c gray87",
",. c #DEDFDE",
"<. c #DFDFDF",
"1. c #E0DFDF",
"2. c #E0E0DF",
"3. c #E0DFE0",
"4. c gray88",
"5. c #E1E1E1",
"6. c #E2E1E1",
"7. c #E1E2E1",
"8. c #E2E2E1",
"9. c None",
"0. c black",
/* pixels */
"9.9.9.9.9.9.9.9.9.9.9.9.9.9.9.9.9.9.9.9.9.9.9.9.9.9.9.9.9.9.9.9.9.9.9.9.9.9.9.9.9.9.9.9.9.9.9.9.9.9.9.9.",
"9.9.9.9.9.9.9.9.9.9.9.9.9.9.9.9.9.9.9.9.9.9.9.9.9.9.9.9.9.9.9.9.9.9.9.9.9.9.9.9.9.9.9.9.9.9.9.9.9.9.9.9.",
"9.9.9.9.9.9.9.9.9.9.9.9.9.9.9.9.9.9.9.9.9.9.9.9.9.9.9.9.9.9.9.9.9.9.9.9.9.9.9.9.9.9.9.9.9.9.9.9.9.9.9.9.",
"9.9.9.9.9.9.9.9.9.9.9.9.9.9.9.9.9.9.9.9.9.9.9.9.9.9.9.9.9.9.9.9.9.9.9.9.9.9.9.9.9.9.9.9.9.9.9.9.9.9.9.9.",
"9.9.9.9.9.9.9.9.9.9.9.9.9.9.9.9.9.9.9.9.9.9.9.9.9.9.9.9.9.9.9.9.9.9.9.9.9.9.9.9.9.9.9.9.9.9.9.9.9.9.9.9.",
"9.9.9.9.9.9.9.9.9.9.9.9.9.9.9.9.9.9.9.9.9.9.9.9.9.9.9.9.9.9.9.9.9.9.9.9.9.9.9.9.9.9.9.9.9.9.9.9.9.9.9.9.",
"9.9.9.9.9.9.9.9.9.9.# # # # # # # # # O O O O O # # + # O O .     o # @ # # # # # # 9.9.9.9.9.9.9.9.9.9.",
"9.9.9.9.9.9.9.9.= 2 7.7.7.2.>.>.>.>.>.>.>.>.>.>.>.1.2.2.1.-.- # = a 2.7.2.2.7.7.#. .> & 9.9.9.9.9.9.9.9.",
"9.9.9.9.9.9.9.$ 7.7.7.7.#.] ] ] ] ] ] ] ] ] ] ] ] ] ] ] ] R t 6 #.R ] ] ] ] ] ] R D D i X 9.9.9.9.9.9.9.",
"9.9.9.9.9.9.. 5 7.7.W W D B B B B B B B B B B B B B B B B Z e 5 D V B B B V B B Z A D p -   9.9.9.9.9.9.",
"9.9.9.9.9.9.. 7.7.] D B B B B B B B B B B B B B B B B B B B e 5 B B B B B B B B B B D i e   9.9.9.9.9.9.",
"9.9.9.9.9.9.. 7.>.W B B B B B B B B B B B B B B B B B B B B t s B B B B B B B B B B Z i e   9.9.9.9.9.9.",
"9.9.9.9.9.9.. 7. .D B B B B B B B B B B B B B B B B B B B B t s B B B B B B B B B B B i e   9.9.9.9.9.9.",
"9.9.9.9.9.9.. 7. .B B B B B B B B B B B B B B B B B B B B B p s B B B B B B B B B B B i e   9.9.9.9.9.9.",
"9.9.9.9.9.9.. 7. .B B B B B B B B B B B B B B B B B B B B B s s B B B B B B B B B B Z i e   9.9.9.9.9.9.",
"9.9.9.9.9.9.. 7. .B B B B B B B B B B B B B B B B B B B B B s B B B B B B B B B B B B i e   9.9.9.9.9.9.",
"9.9.9.9.9.9.. 7. .B B B B B B B B B B B B B B B B B B B B B B B B B B B B B B B B B d y e   9.9.9.9.9.9.",
"9.9.9.9.9.9.. 7. .B B B B B B B B B B B B B B B B B B B B B B B B B B B B B B B B g p t 7   9.9.9.9.9.9.",
"9.9.9.9.9.9.. 7. .B B B B B B B B B B B B B B B B B B B B B B B B B B B B d d s a p y 6 5   9.9.9.9.9.9.",
"9.9.9.9.9.9.. 7. .B B B B B B B B B B B B B B B B B B B B B B B B B B f s i y y 7 6 4 > -   9.9.9.9.9.9.",
"9.9.9.9.9.9.. 7. .B B B B B B B B B B B B B B B B d B B B B B B B B B s d d d d d s 6 3 :   9.9.9.9.9.9.",
"9.9.9.9.9.9.. 7. .B B B B B B B B B B B B B B B B B B B B B B B B B B d D R R R R D a 7 5   9.9.9.9.9.9.",
"9.9.9.9.9.9.. 7. .B B B B B B B B B B B B B B B B B B B B B B B B B B B B B B B V C D i 9   9.9.9.9.9.9.",
"9.9.9.9.9.9.. >.W A B B B B B B B B B B B B B B B B B B B B B B B B B B B B B B B Z D i 7   9.9.9.9.9.9.",
"9.9.9.9.9.9.. d d B B B B B B B B B B B B B B B B B B B B B B B B B B B B B B B B V D i 7   9.9.9.9.9.9.",
"9.9.9.9.9.9.  < i p p p p d d h B B B B B B B B B B B B B B B B B B B B B B B B B B D i 7   9.9.9.9.9.9.",
"9.9.9.9.9.9.  > r s s a a d a s d B B B B B B B B B B B B B B B B B B B B B B B B B A i 7   9.9.9.9.9.9.",
"9.9.9.9.9.9.. p #. .W W W W d d s s B B B B B B B B B B B B B B B B B B B B B B B B d y 7   9.9.9.9.9.9.",
"9.9.9.9.9.9.. 3. .D B B B B B B B s d B B B B B B B B B B B B B B B B f s a p p p p y 7 q   9.9.9.9.9.9.",
"9.9.9.9.9.9.. 7. .D B B B B B B B B B B B B B B B B B B B B B B B B B s s p i i i r r 4 3   9.9.9.9.9.9.",
"9.9.9.9.9.9.. 7. .D B B B B B B B B B B B B B B B B B B B B B B B B B B B B B V B d p 4 ;   9.9.9.9.9.9.",
"9.9.9.9.9.9.. 7. .A B B B B B B B B B B B B B B B B B B B B B B B B B B B B V V V B d r 6   9.9.9.9.9.9.",
"9.9.9.9.9.9.. 7. .S B B B B B B B B B B B B B B d B B B B B B B B B B B B B B B B B B p e   9.9.9.9.9.9.",
"9.9.9.9.9.9.. 7. .B B B B B B B B B B B B B B B d B B B B B B B B B B B B B B B B B D p e   9.9.9.9.9.9.",
"9.9.9.9.9.9.. 7. .B B B B B B B B B B B B B B d B B B B B B B B B B B B B B B B B B D i e   9.9.9.9.9.9.",
"9.9.9.9.9.9.. 7. .B B B B B B B B B B B s s B s B B B B B B B B B B B B B B B B B B Z p e   9.9.9.9.9.9.",
"9.9.9.9.9.9.. 7. .B B B B B B B B B B B s p s s B B B B B B B B B B B B B B B B B B d r e   9.9.9.9.9.9.",
"9.9.9.9.9.9.. 7. .Z B B B B B B B B B d i e s B B B B B B B B B B B B B B B B B B B d r 9   9.9.9.9.9.9.",
"9.9.9.9.9.9.. 7. .A B B B B B B B B B s w r B B B B B B B B B B B B B B B B B B B B s e 7   9.9.9.9.9.9.",
"9.9.9.9.9.9.. #.D Z B B B B B B B B B s 2  .B B B B B B B B B B B B B B B B B B B g u e q   9.9.9.9.9.9.",
"9.9.9.9.9.9.. D D D B B B B B B B B s 6 6 #.B B B B B B B B B B B B B B B D B B B p e e e   9.9.9.9.9.9.",
"9.9.9.9.9.9.. D D D D B B B B B B d p 2 5 >.B B B B B B B V B B B B B B B D B Z a e 9 8 7   9.9.9.9.9.9.",
"9.9.9.9.9.9.9.: s s s d D D D A Z y t 1 5 >.D A B B B B B B B B B B B s s s y y t 7 7 7 * 9.9.9.9.9.9.9.",
"9.9.9.9.9.9.9.o e e e e e e e e e 7 6 , 2 0 e e e e e e e e e e e e e e e e 7 7 7 7 7 7 X 9.9.9.9.9.9.9.",
"9.9.9.9.9.9.9.X = : 7 7 7 7 7 7 7 7 3 - - 4 7 7 7 7 7 7 7 7 7 7 7 7 7 7 7 7 7 7 7 7 : = X 9.9.9.9.9.9.9.",
"9.9.9.9.9.9.9.9.9.X & & & & % % $ $ # o o # $ $ $ $ $ $ $ $ $ $ $ $ $ $ $ $ $ $ $ $ X 9.9.9.9.9.9.9.9.9.",
"9.9.9.9.9.9.9.9.9.9.                                                                9.9.9.9.9.9.9.9.9.9.",
"9.9.9.9.9.9.9.9.9.9.9.9.9.9.9.9.9.9.9.9.9.9.9.9.9.9.9.9.9.9.9.9.9.9.9.9.9.9.9.9.9.9.9.9.9.9.9.9.9.9.9.9.",
"9.9.9.9.9.9.9.9.9.9.9.9.9.9.9.9.9.9.9.9.9.9.9.9.9.9.9.9.9.9.9.9.9.9.9.9.9.9.9.9.9.9.9.9.9.9.9.9.9.9.9.9.",
"9.9.9.9.9.9.9.9.9.9.9.9.9.9.9.9.9.9.9.9.9.9.9.9.9.9.9.9.9.9.9.9.9.9.9.9.9.9.9.9.9.9.9.9.9.9.9.9.9.9.9.9.",
"9.9.9.9.9.9.9.9.9.9.9.9.9.9.9.9.9.9.9.9.9.9.9.9.9.9.9.9.9.9.9.9.9.9.9.9.9.9.9.9.9.9.9.9.9.9.9.9.9.9.9.9.",
"9.9.9.9.9.9.9.9.9.9.9.9.9.9.9.9.9.9.9.9.9.9.9.9.9.9.9.9.9.9.9.9.9.9.9.9.9.9.9.9.9.9.9.9.9.9.9.9.9.9.9.9."
};
