/* XPM */
static const char *wall[] = {
/* columns rows colors chars-per-pixel */
"52 52 143 2 ",
"   c #4C4A4A",
".  c #504F50",
"X  c #535353",
"o  c #5C5C5C",
"O  c #605F5F",
"+  c #646363",
"@  c #686767",
"#  c #686867",
"$  c #6C6C6C",
"%  c #706E6E",
"&  c #747474",
"*  c #7C7C7C",
"=  c #7F7F80",
"-  c #848484",
";  c #888787",
":  c #878887",
">  c #888887",
",  c #878888",
"<  c #8C8C8C",
"1  c #908F8F",
"2  c #8F908F",
"3  c #939393",
"4  c #989897",
"5  c #9C9C9C",
"6  c #9FA09F",
"7  c #A4A4A4",
"8  c #A8A7A8",
"9  c #ABABAB",
"0  c #AFAFB0",
"q  c #B5B6B6",
"w  c #B6B6B6",
"e  c #B6B7B6",
"r  c #B5B5B5",
"t  c #B2B2B2",
"y  c #B7B8B8",
"u  c #B8B8B9",
"i  c #B9B9B9",
"p  c gray73",
"a  c #BABBBB",
"s  c #BBBBBB",
"d  c #BCBCBC",
"f  c gray74",
"g  c #BDBEBD",
"h  c gray",
"j  c #BEBEBF",
"k  c gray75",
"l  c #BCBCBD",
"z  c #C0BFBF",
"x  c #C0BFC0",
"c  c #C0C0C0",
"v  c #C1C1C1",
"b  c #C1C1C2",
"n  c #C2C1C2",
"m  c gray76",
"M  c #C3C2C3",
"N  c #C2C3C3",
"B  c #C3C3C3",
"V  c #C4C3C4",
"C  c #C3C4C4",
"Z  c gray77",
"A  c #C4C4C5",
"S  c #C5C4C5",
"D  c #C5C5C5",
"F  c #C5C5C6",
"G  c #C6C5C6",
"H  c #C5C6C6",
"J  c #C6C6C6",
"K  c #C6C7C6",
"L  c #C7C6C7",
"P  c gray78",
"I  c #C5C5C6",
"U  c #C7C8C7",
"Y  c #C7C7C8",
"T  c #C7C7C8",
"R  c #C8C7C8",
"E  c #C8C7C8",
"W  c #C8C8C8",
"Q  c #C8C9C8",
"!  c #C8C8C9",
"~  c gray79",
"^  c #CACACA",
"/  c #CBCBCB",
"(  c #CBCCCB",
")  c gray80",
"_  c #CCCDCC",
"`  c #CCCCCD",
"'  c #CDCDCD",
"]  c #CDCDCE",
"[  c #CECECE",
"{  c #CECECF",
"}  c gray81",
"|  c #CBCBCB",
" . c #D0CFD0",
".. c #CFD0D0",
"X. c #D0D0D0",
"o. c #D1D0D0",
"O. c #D1D0D1",
"+. c gray82",
"@. c #D1D2D1",
"#. c #D2D1D2",
"$. c #D2D2D2",
"%. c #D2D2D3",
"&. c LightGray",
"*. c #D4D3D4",
"=. c gray83",
"-. c #D4D4D5",
";. c #D5D5D5",
":. c #D6D5D5",
">. c #D5D5D6",
",. c #D6D5D6",
"<. c #D5D6D6",
"1. c gray84",
"2. c #D6D7D6",
"3. c #D6D6D7",
"4. c #D7D6D7",
"5. c #D6D7D7",
"6. c #D7D7D7",
"7. c gray82",
"8. c #D7D8D7",
"9. c #D8D8D8",
"0. c #D8D8D9",
"q. c gray85",
"w. c #DADADB",
"e. c gray86",
"r. c gainsboro",
"t. c #DCDDDC",
"y. c #DCDDDD",
"u. c #DDDDDD",
"i. c gray87",
"p. c #DFDFDF",
"a. c gray88",
"s. c #E0E1E0",
"d. c #E1E1E1",
"f. c #E2E1E1",
"g. c #E2E2E1",
"h. c #E4E4E4",
"j. c gray90",
"k. c #E6E6E6",
"l. c #E7E7E7",
"z. c gray91",
"x. c #E9E9E8",
"c. c None",
"v. c black",
/* pixels */
"c.c.c.c.c.c.c.c.c.c.c.c.c.c.c.c.c.c.c.c.c.c.c.c.c.c.c.c.c.c.c.c.c.c.c.c.c.c.c.c.c.c.c.c.c.c.c.c.c.c.c.c.",
"c.c.c.c.c.c.c.c.c.c.c.c.c.c.c.c.c.c.c.c.c.c.c.c.c.c.c.c.c.c.c.c.c.c.c.c.c.c.c.c.c.c.c.c.c.c.c.c.c.c.c.c.",
"c.c.c.c.c.c.c.c.c.c.c.c.c.c.c.c.c.c.c.c.c.c.c.c.c.c.c.c.c.c.c.c.c.c.c.c.c.c.c.c.c.c.c.c.c.c.c.c.c.c.c.c.",
"c.c.c.c.c.c.c.c.c.c.c.c.c.c.c.c.c.c.c.c.c.c.c.c.c.c.c.c.c.c.c.c.c.c.c.c.c.c.c.c.c.c.c.c.c.c.c.c.c.c.c.c.",
"c.c.c.c.c.c.c.c.c.c.c.c.c.c.c.c.c.c.c.c.c.c.c.c.c.c.c.c.c.c.c.c.c.c.c.c.c.c.c.c.c.c.c.c.c.c.c.c.c.c.c.c.",
"c.c.c.c.c.c.c.c.c.c.c.c.c.c.c.c.c.c.c.c.c.c.c.c.c.c.c.c.c.c.c.c.c.c.c.c.c.c.c.c.c.c.c.c.c.c.c.c.c.c.c.c.",
"c.c.c.c.c.c.c.c.c.c.c.c.c.c.c.c.c.c.c.c.c.c.c.c.c.c.c.c.c.c.c.c.c.c.c.c.c.c.c.c.c.c.c.c.c.c.c.c.c.c.c.c.",
"c.c.c.c.c.c.c.c.c.c.c.c.c.c.c.c.c.c.c.c.c.c.c.c.$ 3 3 & c.c.c.c.c.c.c.c.c.c.c.c.c.c.c.c.c.c.c.c.c.c.c.c.",
"c.c.c.c.c.c.c.c.c.c.c.c.c.c.c.c.c.c.c.c.c.c.@ 5 1.1.1.1.7 # c.c.c.c.c.c.c.c.c.c.c.c.c.c.c.c.c.c.c.c.c.c.",
"c.c.c.c.c.c.c.c.c.c.c.c.c.c.c.c.c.c.c.c.X , _ 1.1.1.1.1.1./ 4 X c.c.c.c.c.c.c.c.c.c.c.c.c.c.c.c.c.c.c.c.",
"c.c.c.c.c.c.c.c.c.c.c.c.c.c.c.c.c.c.c.$ n 1.1.1.1.1.1.1.1.1.1.Z & c.c.c.c.c.c.c.c.c.c.c.c.c.c.c.c.c.c.c.",
"c.c.c.c.c.c.c.c.c.c.c.c.c.c.c.c.c.o 4 t.1.1.1.1./ 1.1.1.*.X.1.1.6.7 + c.c.c.c.c.c.c.c.c.c.c.c.c.c.c.c.c.",
"c.c.c.c.c.c.c.c.c.c.c.c.c.c.c.X - 4 7 X.w.1.1.1.1.1.1.1.X._ 1.1.1.1.k # c.c.c.c.c.c.c.c.c.c.c.c.c.c.c.c.",
"c.c.c.c.c.c.c.c.c.c.c.c.c.c.< n 1.1.0 4 r 1.w.1.1.1.1.1.1.1.1.1.1._ 9 - - & c.c.c.c.c.c.c.c.c.c.c.c.c.c.",
"c.c.c.c.c.c.c.c.c.c.c.c.& t 1.1.1./ n n t 4 / 1.1.1.1.1.1.1.1.X.s 4 4 s X.X.7 o c.c.c.c.c.c.c.c.c.c.c.c.",
"c.c.c.c.c.c.c.c.c.c.# 4 X.1.1.1.1.X._ X.1./ 5 8 / _ ..1.1.1./ 8 4 r 1.1.1.1.1._ 3 o c.c.c.c.c.c.c.c.c.c.",
"c.c.c.c.c.c.c.c.c., 1.1.1.1.1.*.1.X.1.1.1.1.r < 4 4 5 7 t t 7 r X.1.1.1.1.1.1.1.1.r & c.c.c.c.c.c.c.c.c.",
"c.c.c.c.c.c.c.c.- j.j.w.1.1.X._ 1.1.1.1.1./ 7 < 5 7 7 7 4 5 5 w.w.1.1.1.X.1.1.1.*./ t @ c.c.c.c.c.c.c.c.",
"c.c.c.c.c.c.c.c.9 1.d.j.t.1.1.1.1.1.1.1.n 5 4 s 1.1.1.1./ 7 3 k t.1.1.1.X.1.1.X.Z k 8 , c.c.c.c.c.c.c.c.",
"c.c.c.c.c.c.c.c.t n ( w.j.j.w.1.1.w./ 9 5 r X.1.1.1.1.1.1.1.k 8 8 n 1.1.1.1._ n r 6 4 - c.c.c.c.c.c.c.c.",
"c.c.c.c.c.c.c.c.8 Z Z R X.t.x.j._ s 4 9 X.1.1.1.1.1.1.1.1.1.1.1.n 5 9 1.1.Y s 7 3 < < - c.c.c.c.c.c.c.c.",
"c.c.c.c.c.c.c.c.8 Z Z V n / 1.X.5 < R w.1.1.1.1.1.X.1.1.1.1.1.1.1./ 4 - 5 9 5 < < < < - c.c.c.c.c.c.c.c.",
"c.c.c.c.c.c.c.c.8 n n Z Z n / r , z j.d.1.1.1.1.1.1.X.1.1.1.1.1.X.Z r , * 5 < < < < , * c.c.c.c.c.c.c.c.",
"c.c.c.c.c.c.c.c.8 Z n Z Z Z Z 7 4 w.t.j.j.w.1.1.1.1.1.1.1.1.1._ n y 7 4 & 4 < < < < < - c.c.c.c.c.c.c.c.",
"c.c.c.c.c.c.c.c.8 Z Z x Z Z Z 5 4 Z / 1.d.x.d.w.1.1.1.1.1._ Z s 8 4 3 < & 4 < < < < 1 - c.c.c.c.c.c.c.c.",
"c.c.c.c.c.c.c.c.3 Z Z Z Z Z Z 5 4 n V Z / w.j.x.t.w.t.w./ k t 4 < < < < $ 4 < 3 4 4 < $ c.c.c.c.c.c.c.c.",
"c.c.c.c.c.c.c.c.$ 5 n Z Z Z k 2 4 V Z Z Z Z X.t.x.d.8.C s 7 4 < < < < , # , < < 3 3 * X c.c.c.c.c.c.c.c.",
"c.c.c.c.c.c.c.c.3 7 - 8 n j 9 3 < Z Z n Z Z Z _ w.1._ t 4 3 < < < < < , + - < < - @ # o c.c.c.c.c.c.c.c.",
"c.c.c.c.c.c.c.c.9 _ j 3 , 5 5 * , Z Z Z Z n n Z _ X.r 5 < < < , < < , , o & * # @ & - & c.c.c.c.c.c.c.c.",
"c.c.c.c.c.c.c.c.8 Z / / 9 - * & , Z Z Z Z k n Z Z Z 8 3 < < < < < - , , o o o & - - - * c.c.c.c.c.c.c.c.",
"c.c.c.c.c.c.c.c.8 Z Z Z n 4 - , , Z Z Z Z Z Z Z Z k 7 3 1 1 < < - - , & o + # , - - - * c.c.c.c.c.c.c.c.",
"c.c.c.c.c.c.c.c.8 n Z Z Z t 4 , , 7 Z Z Z Z Z Z Z t 7 3 3 < < < - , * o + + * - - - - * c.c.c.c.c.c.c.c.",
"c.c.c.c.c.c.c.c.8 Z Z Z Z Z r < 4 - 4 r Z Z Z Z Z t 4 1 < < < < - & o @ o & - - - - - * c.c.c.c.c.c.c.c.",
"c.c.c.c.c.c.c.c.5 Z Z Z l Z n 7 , 4 , * 3 k Z Z Z t 4 < < < < * + o @ @ & * - - - * - & c.c.c.c.c.c.c.c.",
"c.c.c.c.c.c.c.c.$ k Z Z Z Y Z 7 * , < 5 8 3 7 Z Z t 4 < < * # & - & O + * - - - - - * o c.c.c.c.c.c.c.c.",
"c.c.c.c.c.c.c.c.c.$ 8 Z Y / k 5 * s _  ._ X.7 < 7 8 4 - $ & < 1 - - * o * - - - - * o c.c.c.c.c.c.c.c.c.",
"c.c.c.c.c.c.c.c.c.c.c.- r k t 4 - X.Z Z Z Z _ n 4 & & & , 3 , ; - - - o * - - - + c.c.c.c.c.c.c.c.c.c.c.",
"c.c.c.c.c.c.c.c.c.c.c.c.o 3 7 - , Z Z Z Z Z Z / X.s 5 4 < : , ; - - - + * - $ X c.c.c.c.c.c.c.c.c.c.c.c.",
"c.c.c.c.c.c.c.c.c.c.c.c.c.c.o & = Z Z Z n n Z Z / U 8 < , - , , > : * o @ o c.c.c.c.c.c.c.c.c.c.c.c.c.c.",
"c.c.c.c.c.c.c.c.c.c.c.c.c.c.c.c.o s Z R Z Z Z Z Z r 5 , , , - , - - & . c.c.c.c.c.c.c.c.c.c.c.c.c.c.c.c.",
"c.c.c.c.c.c.c.c.c.c.c.c.c.c.c.c.c.O 7 Z Z Z / n Z t 4 < , , - - - & X c.c.c.c.c.c.c.c.c.c.c.c.c.c.c.c.c.",
"c.c.c.c.c.c.c.c.c.c.c.c.c.c.c.c.c.c.c.$ t Z Z / R t 4 , , , , * + c.c.c.c.c.c.c.c.c.c.c.c.c.c.c.c.c.c.c.",
"c.c.c.c.c.c.c.c.c.c.c.c.c.c.c.c.c.c.c.c.X * r / Y 9 4 < , - @   c.c.c.c.c.c.c.c.c.c.c.c.c.c.c.c.c.c.c.c.",
"c.c.c.c.c.c.c.c.c.c.c.c.c.c.c.c.c.c.c.c.c.c.& 5 t 7 - - & o c.c.c.c.c.c.c.c.c.c.c.c.c.c.c.c.c.c.c.c.c.c.",
"c.c.c.c.c.c.c.c.c.c.c.c.c.c.c.c.c.c.c.c.c.c.c.c.% & # + c.c.c.c.c.c.c.c.c.c.c.c.c.c.c.c.c.c.c.c.c.c.c.c.",
"c.c.c.c.c.c.c.c.c.c.c.c.c.c.c.c.c.c.c.c.c.c.c.c.c.c.c.c.c.c.c.c.c.c.c.c.c.c.c.c.c.c.c.c.c.c.c.c.c.c.c.c.",
"c.c.c.c.c.c.c.c.c.c.c.c.c.c.c.c.c.c.c.c.c.c.c.c.c.c.c.c.c.c.c.c.c.c.c.c.c.c.c.c.c.c.c.c.c.c.c.c.c.c.c.c.",
"c.c.c.c.c.c.c.c.c.c.c.c.c.c.c.c.c.c.c.c.c.c.c.c.c.c.c.c.c.c.c.c.c.c.c.c.c.c.c.c.c.c.c.c.c.c.c.c.c.c.c.c.",
"c.c.c.c.c.c.c.c.c.c.c.c.c.c.c.c.c.c.c.c.c.c.c.c.c.c.c.c.c.c.c.c.c.c.c.c.c.c.c.c.c.c.c.c.c.c.c.c.c.c.c.c.",
"c.c.c.c.c.c.c.c.c.c.c.c.c.c.c.c.c.c.c.c.c.c.c.c.c.c.c.c.c.c.c.c.c.c.c.c.c.c.c.c.c.c.c.c.c.c.c.c.c.c.c.c.",
"c.c.c.c.c.c.c.c.c.c.c.c.c.c.c.c.c.c.c.c.c.c.c.c.c.c.c.c.c.c.c.c.c.c.c.c.c.c.c.c.c.c.c.c.c.c.c.c.c.c.c.c.",
"c.c.c.c.c.c.c.c.c.c.c.c.c.c.c.c.c.c.c.c.c.c.c.c.c.c.c.c.c.c.c.c.c.c.c.c.c.c.c.c.c.c.c.c.c.c.c.c.c.c.c.c."
};
